<?xml version="1.0" encoding="UTF-8" standalone="no"?>
<svg
   xmlns:dc="http://purl.org/dc/elements/1.1/"
   xmlns:cc="http://creativecommons.org/ns#"
   xmlns:rdf="http://www.w3.org/1999/02/22-rdf-syntax-ns#"
   xmlns:svg="http://www.w3.org/2000/svg"
   xmlns="http://www.w3.org/2000/svg"
   xmlns:sodipodi="http://sodipodi.sourceforge.net/DTD/sodipodi-0.dtd"
   xmlns:inkscape="http://www.inkscape.org/namespaces/inkscape"
   style="isolation:isolate"
   viewBox="0 0 79.313004 79.312004"
   width="79.313004pt"
   height="79.312004pt"
   version="1.1"
   id="svg157"
   sodipodi:docname="bottles.svg"
   inkscape:version="1.0.2 (e86c8708, 2021-01-15)">
  <metadata
     id="metadata161">
    <rdf:RDF>
      <cc:Work
         rdf:about="">
        <dc:format>image/svg+xml</dc:format>
        <dc:type
           rdf:resource="http://purl.org/dc/dcmitype/StillImage" />
        <dc:title></dc:title>
      </cc:Work>
    </rdf:RDF>
  </metadata>
  <sodipodi:namedview
     pagecolor="#ffffff"
     bordercolor="#666666"
     borderopacity="1"
     objecttolerance="10"
     gridtolerance="10"
     guidetolerance="10"
     inkscape:pageopacity="0"
     inkscape:pageshadow="2"
     inkscape:window-width="1536"
     inkscape:window-height="850"
     id="namedview159"
     showgrid="false"
     inkscape:zoom="1.6648352"
     inkscape:cx="229.33334"
     inkscape:cy="52.874667"
     inkscape:window-x="0"
     inkscape:window-y="25"
     inkscape:window-maximized="1"
     inkscape:current-layer="g155" />
  <defs
     id="defs13">
    <clipPath
       id="_clipPath_5ljjap3fVZmWwTufLJ3iB6pXXg8SxkUK">
      <rect
         width="364"
         height="102"
         id="rect10"
         x="0"
         y="0" />
    </clipPath>
  </defs>
  <g
     clip-path="url(#_clipPath_5ljjap3fVZmWwTufLJ3iB6pXXg8SxkUK)"
     id="g155"
     transform="translate(-9.9999985,-11.344)">
    <clipPath
       id="_clipPath_hXYG2ucnxVAev7NZVrDkv4bcS057eVOR">
      <rect
         x="19"
         y="0"
         width="364"
         height="102"
         fill="#ffffff"
         id="rect15" />
    </clipPath>
    <g
       clip-path="url(#_clipPath_hXYG2ucnxVAev7NZVrDkv4bcS057eVOR)"
       id="g24">
      <g
         id="g22">
        <g
           id="g20" />
      </g>
    </g>
    <linearGradient
       id="_lgradient_33"
       x1="0"
       y1="0.4999986"
       x2="1"
       y2="0.4999986"
       gradientTransform="matrix(22.879,0,0,67.111,38.217,20.495)"
       gradientUnits="userSpaceOnUse">
      <stop
         offset="0%"
         stop-opacity="1"
         style="stop-color:rgb(222,221,218)"
         id="stop26" />
      <stop
         offset="25%"
         stop-opacity="1"
         style="stop-color:rgb(246,245,244)"
         id="stop28" />
      <stop
         offset="75%"
         stop-opacity="1"
         style="stop-color:rgb(255,255,255)"
         id="stop30" />
      <stop
         offset="100%"
         stop-opacity="0.854902"
         style="stop-color:rgb(222,221,218)"
         id="stop32" />
    </linearGradient>
    <path
       d="m 42.447,20.495 c 0,0 -4.23,10.379 -4.23,11.07 V 87.606 H 61.096 V 31.562 c 0,0.003 -3.814,-11.067 -3.814,-11.067 z"
       fill="url(#_lgradient_33)"
       id="path35"
       style="fill:url(#_lgradient_33)" />
    <linearGradient
       id="_lgradient_34"
       x1="6.3333334e-07"
       y1="0.51359355"
       x2="1.0028826"
       y2="0.51359355"
       gradientTransform="matrix(22.879,0,0,11.067,38.217,20.495)"
       gradientUnits="userSpaceOnUse">
      <stop
         offset="0%"
         stop-opacity="1"
         style="stop-color:rgb(192,191,188)"
         id="stop37" />
      <stop
         offset="25%"
         stop-opacity="1"
         style="stop-color:rgb(222,221,218)"
         id="stop39" />
      <stop
         offset="75%"
         stop-opacity="1"
         style="stop-color:rgb(246,245,244)"
         id="stop41" />
      <stop
         offset="100%"
         stop-opacity="1"
         style="stop-color:rgb(192,191,188)"
         id="stop43" />
    </linearGradient>
    <path
       d="m 42.03,20.495 c 0,0 -3.813,10.379 -3.813,11.067 h 22.879 c 0,-0.372 -3.814,-11.067 -3.814,-11.067 z"
       fill="url(#_lgradient_34)"
       id="path46"
       style="fill:url(#_lgradient_34)" />
    <linearGradient
       id="_lgradient_35"
       x1="2.5757709e-08"
       y1="0.84375381"
       x2="1"
       y2="0.84375381"
       gradientTransform="matrix(28.217,0,0,24.329,10,14.394)"
       gradientUnits="userSpaceOnUse">
      <stop
         offset="0%"
         stop-opacity="1"
         style="stop-color:rgb(192,191,188)"
         id="stop48" />
      <stop
         offset="25%"
         stop-opacity="1"
         style="stop-color:rgb(222,221,218)"
         id="stop50" />
      <stop
         offset="75%"
         stop-opacity="1"
         style="stop-color:rgb(222,221,218)"
         id="stop52" />
      <stop
         offset="100%"
         stop-opacity="1"
         style="stop-color:rgb(192,191,188)"
         id="stop54" />
    </linearGradient>
    <path
       d="m 10,38.718 c 0.378,0.012 28.217,0 28.217,0 0,-9.774 -9.032,-18.223 -9.151,-24.324 h -9.915 c 0,6.101 -9.154,14.55 -9.151,24.324 z"
       fill="url(#_lgradient_35)"
       id="path57"
       style="fill:url(#_lgradient_35)" />
    <path
       d="M 61.096,87.606 H 38.217 v 3.05 h 22.879 z"
       fill="#c0bfbc"
       id="path59" />
    <linearGradient
       id="_lgradient_36"
       x1="0"
       y1="0.5"
       x2="1"
       y2="0.5"
       gradientTransform="matrix(15.252,0,0,3.858,42.03,16.637)"
       gradientUnits="userSpaceOnUse">
      <stop
         offset="100%"
         stop-opacity="1"
         style="stop-color:rgb(26,95,180)"
         id="stop61" />
      <stop
         offset="100%"
         stop-opacity="1"
         style="stop-color:rgb(26,97,185)"
         id="stop63" />
      <stop
         offset="100%"
         stop-opacity="1"
         style="stop-color:rgb(29,114,217)"
         id="stop65" />
      <stop
         offset="100%"
         stop-opacity="1"
         style="stop-color:rgb(52,131,226)"
         id="stop67" />
    </linearGradient>
    <path
       d="m 42.03,16.637 v 3.858 h 15.252 v -3.858 z"
       fill="url(#_lgradient_36)"
       id="path70"
       style="fill:url(#_lgradient_36)" />
    <linearGradient
       id="_lgradient_37"
       x1="0"
       y1="0.5"
       x2="1"
       y2="0.5"
       gradientTransform="matrix(22.879,0,0,18.246,38.217,44.926)"
       gradientUnits="userSpaceOnUse">
      <stop
         offset="100%"
         stop-opacity="1"
         style="stop-color:rgb(26,95,180)"
         id="stop72" />
      <stop
         offset="100%"
         stop-opacity="1"
         style="stop-color:rgb(26,97,185)"
         id="stop74" />
      <stop
         offset="100%"
         stop-opacity="1"
         style="stop-color:rgb(29,114,217)"
         id="stop76" />
      <stop
         offset="100%"
         stop-opacity="1"
         style="stop-color:rgb(52,131,226)"
         id="stop78" />
    </linearGradient>
    <path
       d="m 49.656,44.926 c -5.719,0 -5.719,7.212 -5.719,7.212 h -5.72 V 63.172 H 61.096 V 52.138 h -5.72 c 0,0 0,-7.212 -5.72,-7.212 z m 0,1.525 c 0,0 4.159,5.073 2.637,7.582 -1.523,2.508 -3.754,2.508 -5.276,0 -1.522,-2.509 2.639,-7.582 2.639,-7.582 z"
       fill="url(#_lgradient_37)"
       id="path81"
       style="fill:url(#_lgradient_37)" />
    <path
       d="M 38.217,87.606 H 15.663 c -0.095,0 -0.194,-0.003 -0.289,-0.009 -0.098,-0.003 -0.194,-0.012 -0.289,-0.024 -0.098,-0.009 -0.191,-0.021 -0.286,-0.039 -0.095,-0.015 -0.185,-0.032 -0.28,-0.053 -0.092,-0.018 -0.185,-0.042 -0.274,-0.069 -0.089,-0.024 -0.179,-0.051 -0.268,-0.08 -0.179,-0.06 -0.352,-0.128 -0.521,-0.206 C 13.286,87.052 13.119,86.965 12.958,86.87 12.8,86.778 12.645,86.676 12.493,86.566 12.341,86.456 12.196,86.34 12.058,86.215 11.918,86.092 11.781,85.961 11.656,85.821 11.528,85.684 11.406,85.538 11.29,85.389 11.174,85.237 11.066,85.083 10.965,84.919 10.864,84.758 10.769,84.591 10.682,84.418 10.596,84.245 10.515,84.067 10.444,83.882 10.372,83.7 10.307,83.516 10.253,83.322 10.2,83.131 10.152,82.938 10.116,82.738 10.077,82.539 10.048,82.336 10.03,82.13 10.012,81.925 10,81.716 10,81.505 v 2.732 0.003 c 0,0.22 0.012,0.44 0.033,0.655 v 0.003 c 0.021,0.214 0.053,0.426 0.095,0.634 0.039,0.209 0.092,0.414 0.152,0.614 v 0.003 c 0.06,0.2 0.131,0.393 0.209,0.587 0.077,0.191 0.166,0.378 0.265,0.56 0.286,0.542 0.649,1.04 1.072,1.475 1.129,1.158 2.69,1.876 4.424,1.885 h 21.967 z"
       fill="#e66100"
       id="path83" />
    <linearGradient
       id="_lgradient_38"
       x1="3.106737e-06"
       y1="0.57920146"
       x2="1.000003"
       y2="0.57920146"
       gradientTransform="matrix(28.217,0,0,67.111,10,20.495)"
       gradientUnits="userSpaceOnUse">
      <stop
         offset="0%"
         stop-opacity="1"
         style="stop-color:rgb(255,163,72)"
         id="stop85" />
      <stop
         offset="25%"
         stop-opacity="1"
         style="stop-color:rgb(255,190,111)"
         id="stop87" />
      <stop
         offset="75%"
         stop-opacity="1"
         style="stop-color:rgb(255,190,111)"
         id="stop89" />
      <stop
         offset="100%"
         stop-opacity="1"
         style="stop-color:rgb(255,163,72)"
         id="stop91" />
    </linearGradient>
    <path
       d="M 17.173,20.495 C 17.17,20.498 17.167,20.501 17.164,20.504 14.471,25.694 9.997,31.878 10,38.715 v 42.79 c 0,0.211 0.012,0.42 0.03,0.625 0.018,0.206 0.047,0.409 0.083,0.608 0.039,0.2 0.087,0.393 0.14,0.587 0.054,0.191 0.119,0.375 0.191,0.557 0.071,0.185 0.152,0.363 0.238,0.536 0.087,0.173 0.182,0.34 0.283,0.504 0.101,0.161 0.209,0.315 0.325,0.467 0.116,0.152 0.238,0.295 0.363,0.435 0.128,0.137 0.265,0.268 0.403,0.391 0.14,0.125 0.285,0.241 0.437,0.351 0.152,0.11 0.307,0.212 0.465,0.307 0.161,0.092 0.328,0.179 0.498,0.256 0.169,0.075 0.342,0.143 0.521,0.203 0.089,0.029 0.179,0.056 0.268,0.083 0.089,0.024 0.182,0.048 0.274,0.066 0.095,0.021 0.185,0.038 0.28,0.053 0.095,0.018 0.188,0.03 0.283,0.039 0.098,0.012 0.194,0.021 0.289,0.024 0.098,0.006 0.197,0.009 0.292,0.009 H 38.217 V 38.715 c 0,-6.837 -4.415,-13.021 -7.111,-18.211 -0.003,-0.003 -0.006,-0.006 -0.009,-0.009 z"
       fill="url(#_lgradient_38)"
       id="path94"
       style="fill:url(#_lgradient_38)" />
    <linearGradient
       id="_lgradient_39"
       x1="1.2162162e-05"
       y1="0.48850861"
       x2="1.0000119"
       y2="0.48850861"
       gradientTransform="matrix(28.217,0,0,60.289,61.096,30.368)"
       gradientUnits="userSpaceOnUse">
      <stop
         offset="0%"
         stop-opacity="1"
         style="stop-color:rgb(224,27,36)"
         id="stop96" />
      <stop
         offset="25%"
         stop-opacity="1"
         style="stop-color:rgb(237,51,59)"
         id="stop98" />
      <stop
         offset="75%"
         stop-opacity="1"
         style="stop-color:rgb(246,97,81)"
         id="stop100" />
      <stop
         offset="100%"
         stop-opacity="1"
         style="stop-color:rgb(224,27,36)"
         id="stop102" />
    </linearGradient>
    <path
       d="m 67.197,30.368 c -3.245,1.584 -6.101,5.117 -6.101,8.791 v 51.497 h 21.967 c 3.464,-0.015 6.25,-2.871 6.25,-6.416 V 39.159 c 0,-3.682 -2.845,-7.21 -6.101,-8.791 z"
       fill="url(#_lgradient_39)"
       id="path105"
       style="fill:url(#_lgradient_39)" />
    <linearGradient
       id="_lgradient_40"
       x1="0"
       y1="0.5"
       x2="1"
       y2="0.5"
       gradientTransform="matrix(9.914,0,0,3.05,19.151,11.344)"
       gradientUnits="userSpaceOnUse">
      <stop
         offset="0%"
         stop-opacity="1"
         style="stop-color:rgb(51,209,122)"
         id="stop107" />
      <stop
         offset="38.845400000000005%"
         stop-opacity="1"
         style="stop-color:rgb(87,227,137)"
         id="stop109" />
      <stop
         offset="75%"
         stop-opacity="1"
         style="stop-color:rgb(87,227,137)"
         id="stop111" />
      <stop
         offset="100%"
         stop-opacity="0.854902"
         style="stop-color:rgb(46,194,126)"
         id="stop113" />
    </linearGradient>
    <path
       d="m 19.151,11.344 h 9.915 v 3.05 h -9.915 z"
       fill="url(#_lgradient_40)"
       id="path116"
       style="fill:url(#_lgradient_40)" />
    <path
       d="m 89.313,81.505 c 0,3.381 -2.527,6.101 -5.664,6.101 H 61.096 v 3.05 h 21.967 c 3.464,-0.015 6.25,-2.871 6.25,-6.416 z"
       fill="#c01c28"
       id="path118" />
    <linearGradient
       id="_lgradient_41"
       x1="-0.38095239"
       y1="0.50048101"
       x2="1.3809524"
       y2="0.50048101"
       gradientTransform="matrix(16.015,0,0,1.549,67.197,28.842)"
       gradientUnits="userSpaceOnUse">
      <stop
         offset="0%"
         stop-opacity="1"
         style="stop-color:rgb(61,56,70)"
         id="stop120" />
      <stop
         offset="25%"
         stop-opacity="1"
         style="stop-color:rgb(94,92,100)"
         id="stop122" />
      <stop
         offset="75%"
         stop-opacity="1"
         style="stop-color:rgb(119,118,123)"
         id="stop124" />
      <stop
         offset="100%"
         stop-opacity="1"
         style="stop-color:rgb(119,118,123)"
         id="stop126" />
    </linearGradient>
    <path
       d="m 67.197,28.842 h 16.015 v 1.549 H 67.197 Z"
       fill="url(#_lgradient_41)"
       id="path129"
       style="fill:url(#_lgradient_41)" />
    <linearGradient
       id="_lgradient_42"
       x1="0"
       y1="0.5"
       x2="1"
       y2="0.5"
       gradientTransform="matrix(16.015,0,0,5.297,67.197,23.546)"
       gradientUnits="userSpaceOnUse">
      <stop
         offset="100%"
         stop-opacity="1"
         style="stop-color:rgb(154,153,150)"
         id="stop131" />
      <stop
         offset="100%"
         stop-opacity="1"
         style="stop-color:rgb(158,157,154)"
         id="stop133" />
      <stop
         offset="100%"
         stop-opacity="1"
         style="stop-color:rgb(193,192,189)"
         id="stop135" />
      <stop
         offset="100%"
         stop-opacity="1"
         style="stop-color:rgb(220,219,216)"
         id="stop137" />
    </linearGradient>
    <path
       d="m 67.197,23.546 h 16.015 v 5.296 H 67.197 Z"
       fill="url(#_lgradient_42)"
       id="path140"
       style="fill:url(#_lgradient_42)" />
    <linearGradient
       id="_lgradient_43"
       x1="0"
       y1="0.5"
       x2="1"
       y2="0.5"
       gradientTransform="matrix(9.151,0,0,3.438,80.161,78.067)"
       gradientUnits="userSpaceOnUse">
      <stop
         offset="100%"
         stop-opacity="1"
         style="stop-color:rgb(154,153,150)"
         id="stop142" />
      <stop
         offset="100%"
         stop-opacity="1"
         style="stop-color:rgb(158,157,154)"
         id="stop144" />
      <stop
         offset="100%"
         stop-opacity="1"
         style="stop-color:rgb(193,192,189)"
         id="stop146" />
      <stop
         offset="100%"
         stop-opacity="1"
         style="stop-color:rgb(220,219,216)"
         id="stop148" />
    </linearGradient>
    <path
       d="m 80.161,78.067 h 9.152 v 3.438 h -9.152 z"
       fill="url(#_lgradient_43)"
       id="path151"
       style="fill:url(#_lgradient_43)" />
    <path
       d="m 24.108,43.374 c -4.212,0 -7.626,3.414 -7.626,7.626 0,4.212 3.414,7.626 7.626,7.626 4.213,0 7.627,-3.414 7.627,-7.626 0,-4.212 -3.414,-7.626 -7.627,-7.626 z"
       fill="#33d17a"
       fill-opacity="0.854902"
       id="path153" />
  </g>
</svg>
