<?xml version="1.0" ?>
<!-- Uploaded to: SVG Repo, www.svgrepo.com, Generator: SVG Repo Mixer Tools -->
<svg width="800px" height="800px" viewBox="0 0 64 64" id="svg5" version="1.1" xml:space="preserve" xmlns="http://www.w3.org/2000/svg" xmlns:svg="http://www.w3.org/2000/svg">
<defs id="defs2"/>
<g id="layer1" transform="translate(-384,-480)">
<path d="m 393.99999,489 h 49 v 6 h -49 z" id="path61060" style="fill:#3e4f59;fill-opacity:1;fill-rule:evenodd;stroke-width:2;stroke-linecap:round;stroke-linejoin:round;stroke-miterlimit:4.1"/>
<path d="m 393.99999,495 h 49 v 40 h -49 z" id="path61062" style="fill:#acbec2;fill-opacity:1;fill-rule:evenodd;stroke-width:2.00001;stroke-linecap:round;stroke-linejoin:round;stroke-miterlimit:4.1"/>
<path d="m 393.99999,495 v 40 h 29.76953 a 28.484051,41.392605 35.599482 0 0 18.625,-40 z" id="path61064" style="fill:#e8edee;fill-opacity:1;fill-rule:evenodd;stroke:none;stroke-width:2.00002;stroke-linecap:round;stroke-linejoin:round;stroke-miterlimit:4.1"/>
<path d="m 395.99999,488 c -1.64501,0 -3,1.355 -3,3 v 40 c 0,0.55229 0.44772,1 1,1 0.55229,0 1,-0.44771 1,-1 v -40 c 0,-0.56413 0.43587,-1 1,-1 h 45 c 0.56413,0 1,0.43587 1,1 v 3 h -42 c -0.55228,0 -1,0.44772 -1,1 0,0.55229 0.44772,1 1,1 h 42 v 37 c 0,0.56413 -0.43587,1 -1,1 h -49 c -0.55228,0 -1,0.44772 -1,1 0,0.55229 0.44772,1 1,1 h 49 c 1.64501,0 3,-1.35499 3,-3 0,-14 0,-28 0,-42 0,-1.645 -1.35499,-3 -3,-3 z" id="path61066" style="color:#000000;fill:#000000;fill-rule:evenodd;stroke-linecap:round;stroke-linejoin:round;stroke-miterlimit:4.1"/>
<path d="m 438.99999,491 c -0.55228,0 -1,0.44772 -1,1 0,0.55229 0.44772,1 1,1 0.55229,0 1,-0.44771 1,-1 0,-0.55228 -0.44771,-1 -1,-1 z" id="path61068" style="color:#000000;fill:#ed7161;fill-opacity:1;fill-rule:evenodd;stroke-linecap:round;stroke-linejoin:round;stroke-miterlimit:4.1;-inkscape-stroke:none"/>
<path d="m 434.99999,491 c -0.55228,0 -1,0.44772 -1,1 0,0.55229 0.44772,1 1,1 0.55229,0 1,-0.44771 1,-1 0,-0.55228 -0.44771,-1 -1,-1 z" id="path61070" style="color:#000000;fill:#ecba16;fill-opacity:1;fill-rule:evenodd;stroke-linecap:round;stroke-linejoin:round;stroke-miterlimit:4.1;-inkscape-stroke:none"/>
<path d="m 430.99999,491 c -0.55228,0 -1,0.44772 -1,1 0,0.55229 0.44772,1 1,1 0.55229,0 1,-0.44771 1,-1 0,-0.55228 -0.44771,-1 -1,-1 z" id="path61072" style="color:#000000;fill:#42b05c;fill-opacity:1;fill-rule:evenodd;stroke-linecap:round;stroke-linejoin:round;stroke-miterlimit:4.1;-inkscape-stroke:none"/>
<path d="m 388.99999,534 a 1,1 0 0 0 -1,1 1,1 0 0 0 1,1 1,1 0 0 0 1,-1 1,1 0 0 0 -1,-1 z" id="path61074" style="color:#000000;fill:#000000;fill-rule:evenodd;stroke-linecap:round;stroke-linejoin:round;stroke-miterlimit:4.1;-inkscape-stroke:none"/>
<path d="m 396.99999,494 c -0.55228,0 -1,0.44772 -1,1 0,0.55229 0.44772,1 1,1 0.55229,0 1,-0.44771 1,-1 0,-0.55228 -0.44771,-1 -1,-1 z" id="path61076" style="color:#000000;fill:#000000;fill-rule:evenodd;stroke-linecap:round;stroke-linejoin:round;stroke-miterlimit:4.1;-inkscape-stroke:none"/>
<path d="m 408.5,512.00001 h 20 c 4.155,0 7.5,3.568 7.5,7.99999 0,4.432 -3.345,7.99999 -7.5,7.99999 -6.66667,0 -13.33333,0 -20,0 -4.155,0 -7.5,-3.56799 -7.5,-7.99999 0,-4.43199 3.345,-7.99999 7.5,-7.99999 z" id="rect12688" style="fill:#fe73c5;fill-opacity:1;fill-rule:evenodd;stroke:none;stroke-width:2;stroke-linecap:round;stroke-linejoin:round;stroke-miterlimit:4.1"/>
<path d="M 408.5,511.99999 C 404.345,512 401,515.56802 401,520 c 0,4.432 3.34501,8.00001 7.5,8 h 20 c 1.23874,0 2.40211,-0.32215 3.42969,-0.88477 A 21.812609,12.412566 10.284033 0 0 415.79492,512 Z" id="path39411" style="fill:#fe93d3;fill-opacity:1;fill-rule:evenodd;stroke:none;stroke-width:2;stroke-linecap:round;stroke-linejoin:round;stroke-miterlimit:4.1"/>
<path d="M 413.99997,509 H 424 v 2.99999 h -10.00003 z" id="rect14177" style="fill:#0588e2;fill-opacity:1;fill-rule:evenodd;stroke:none;stroke-width:2.00001;stroke-linecap:round;stroke-linejoin:round;stroke-miterlimit:4.1"/>
<path d="m 407.57227,515.5 v 2.57227 H 405 v 3.85546 h 2.57227 V 524.5 h 3.85546 v -2.57227 H 414 v -3.85546 h -2.57227 V 515.5 Z" id="rect17135" style="fill:none;fill-opacity:1;fill-rule:evenodd;stroke:none;stroke-width:2.00001;stroke-linecap:round;stroke-linejoin:round;stroke-miterlimit:4.1"/>
<path d="m 407.57227,515.5 v 2.57227 H 405 v 3.85546 h 2.57227 V 524.5 h 3.85546 v -2.57227 H 414 v -3.85546 h -2.57227 V 515.5 Z" id="path4888" style="fill:#ffa221;fill-opacity:1;fill-rule:evenodd;stroke:none;stroke-width:2.00001;stroke-linecap:round;stroke-linejoin:round;stroke-miterlimit:4.1"/>
<path d="m 418.90039,502.50391 c -0.19667,0.0203 -0.3829,0.0985 -0.53516,0.22461 -0.42558,0.35084 -0.48675,0.98001 -0.13671,1.40625 0.61407,0.74615 0.79107,1.33442 0.76953,1.89843 -0.0215,0.56402 -0.27211,1.17761 -0.79297,1.86133 -0.0236,0.0338 -0.0452,0.069 -0.0645,0.10547 H 414 c -0.55226,6e-5 -0.99994,0.44774 -1,1 v 2 c -0.55228,0 -1,0.44772 -1,1 0,0.55228 0.44772,1 1,1 5.16667,0 10.33333,0 15.5,0 3.58251,0 6.5,3.07117 6.5,7 0,3.92884 -2.91748,7 -6.5,7 -0.55228,0 -1,0.44772 -1,1 0,0.55228 0.44772,1 1,1 4.72748,0 8.5,-4.06485 8.5,-9 0,-4.93515 -3.77252,-9 -8.5,-9 H 425 v -2 c 0,-0.55228 -0.44772,-1 -1,-1 -0.55228,0 -1,0.44772 -1,1 v 2 h -8 v -1 h 5.53516 c 0.55228,0 1,-0.44772 1,-1 0,-0.55228 -0.44772,-1 -1,-1 h -0.0449 c 0.29526,-0.59358 0.48235,-1.22398 0.50782,-1.89062 0.042,-1.09808 -0.38286,-2.21892 -1.22657,-3.24415 -0.16835,-0.2054 -0.41148,-0.33539 -0.67578,-0.36132 -0.065,-0.006 -0.13036,-0.006 -0.19531,0 z M 408.5,511 c -4.72748,0 -8.5,4.06485 -8.5,9 0,4.93515 3.77252,9 8.5,9 H 424 c 0.55228,0 1,-0.44772 1,-1 0,-0.55228 -0.44772,-1 -1,-1 h -15.5 c -3.58252,0 -6.5,-3.07116 -6.5,-7 0,-3.92883 2.91749,-7 6.5,-7 0.55228,0 1,-0.44772 1,-1 0,-0.55228 -0.44772,-1 -1,-1 z" id="path18252" style="color:#000000;fill:#000000;fill-rule:evenodd;stroke-linecap:round;stroke-linejoin:round;stroke-miterlimit:4.1"/>
<path d="m 405,518.07227 v 3.85546 h 2.57227 V 524.5 h 3.85546 v -2.57227 h 0.51563 a 7.9474268,7.9057474 0 0 0 -4.37109,-3.85546 z" id="path39548" style="fill:#ffc343;fill-opacity:1;fill-rule:evenodd;stroke:none;stroke-width:2;stroke-linecap:round;stroke-linejoin:round;stroke-miterlimit:4.1"/>
<path d="m 407.57227,514.5 a 1.000105,1.000105 0 0 0 -1,1 v 1.57227 H 405 a 1.000105,1.000105 0 0 0 -1,1 v 3.85546 a 1.000105,1.000105 0 0 0 1,1 h 1.57227 V 524.5 a 1.000105,1.000105 0 0 0 1,1 h 3.85546 a 1.000105,1.000105 0 0 0 1,-1 v -1.57227 H 414 a 1.000105,1.000105 0 0 0 1,-1 v -3.85546 a 1.000105,1.000105 0 0 0 -1,-1 h -1.57227 V 515.5 a 1.000105,1.000105 0 0 0 -1,-1 z m 1,2 h 1.85546 v 1.57227 a 1.000105,1.000105 0 0 0 1,1 H 413 v 1.85546 h -1.57227 a 1.000105,1.000105 0 0 0 -1,1 V 523.5 h -1.85546 v -1.57227 a 1.000105,1.000105 0 0 0 -1,-1 H 406 v -1.85546 h 1.57227 a 1.000105,1.000105 0 0 0 1,-1 z" id="path4890" style="color:#000000;fill:#000000;fill-rule:evenodd;stroke-linecap:round;stroke-linejoin:round;stroke-miterlimit:4.1;-inkscape-stroke:none"/>
<path d="m 427,515 c -1.09272,0 -2,0.90728 -2,2 0,1.09272 0.90728,2 2,2 1.09272,0 2,-0.90728 2,-2 0,-1.09272 -0.90728,-2 -2,-2 z" id="path17142" style="color:#000000;fill:#0075d3;fill-opacity:1;fill-rule:evenodd;stroke-linecap:round;stroke-linejoin:round;stroke-miterlimit:4.1"/>
<path d="m 427,521 c -1.09272,0 -2,0.90728 -2,2 0,1.09272 0.90728,2 2,2 1.09272,0 2,-0.90728 2,-2 0,-1.09272 -0.90728,-2 -2,-2 z" id="circle17144" style="color:#000000;fill:#0588e2;fill-opacity:1;fill-rule:evenodd;stroke-linecap:round;stroke-linejoin:round;stroke-miterlimit:4.1;-inkscape-stroke:none"/>
<path d="m 431,518 c -1.09272,0 -2,0.90728 -2,2 0,1.09272 0.90728,2 2,2 1.09272,0 2,-0.90728 2,-2 0,-1.09272 -0.90728,-2 -2,-2 z" id="circle17146" style="color:#000000;fill:#0075d3;fill-opacity:1;fill-rule:evenodd;stroke-linecap:round;stroke-linejoin:round;stroke-miterlimit:4.1;-inkscape-stroke:none"/>
<path d="m 423,518 c -1.09272,0 -2,0.90728 -2,2 0,1.09272 0.90728,2 2,2 1.09272,0 2,-0.90728 2,-2 0,-1.09272 -0.90728,-2 -2,-2 z" id="circle17148" style="color:#000000;fill:#0588e2;fill-opacity:1;fill-rule:evenodd;stroke-linecap:round;stroke-linejoin:round;stroke-miterlimit:4.1;-inkscape-stroke:none"/>
<path d="M 426.26953,515.14062 C 425.53072,515.43631 425,516.16403 425,517 c 0,1.09272 0.90728,2 2,2 0.38522,0 0.74718,-0.11275 1.05469,-0.30664 0.0517,-0.22339 0.0801,-0.45576 0.0801,-0.69336 0,-1.26237 -0.77302,-2.36615 -1.86524,-2.85938 z" id="path39613" style="color:#000000;fill:#0588e2;fill-opacity:1;fill-rule:evenodd;stroke-width:1;stroke-linecap:round;stroke-linejoin:round;stroke-miterlimit:4.1"/>
<path d="m 430.13477,519 c -0.36055,0 -0.6999,0.0999 -0.99415,0.27148 C 429.05024,519.49792 429,519.74389 429,520 c 0,1.09272 0.90728,2 2,2 0.36055,0 0.6999,-0.0999 0.99414,-0.27148 0.0904,-0.22644 0.14063,-0.47241 0.14063,-0.72852 0,-1.09272 -0.90729,-2 -2,-2 z" id="path39726" style="color:#000000;fill:#0588e2;fill-opacity:1;fill-rule:evenodd;stroke-linecap:round;stroke-linejoin:round;stroke-miterlimit:4.1;-inkscape-stroke:none"/>
</g>
</svg>