<svg xmlns="http://www.w3.org/2000/svg"  viewBox="0 0 48 48" width="48px" height="48px" baseProfile="basic"><linearGradient id="knu3ItpEHUFiec24NryH-a" x1="2.043" x2="31.957" y1="19.543" y2="49.457" gradientUnits="userSpaceOnUse"><stop offset="0" stop-color="#f44f5a"/><stop offset=".443" stop-color="#ee3d4a"/><stop offset="1" stop-color="#e52030"/></linearGradient><path fill="url(#knu3ItpEHUFiec24NryH-a)" d="M38,36H12V17c0-0.552-0.448-1-1-1H6c-0.552,0-1,0.448-1,1v19v6c0,0.552,0.448,1,1,1h6h26	c0.552,0,1-0.448,1-1v-5C39,36.448,38.552,36,38,36z"/><linearGradient id="knu3ItpEHUFiec24NryH-b" x1="11.911" x2="28.758" y1="20.411" y2="37.258" gradientUnits="userSpaceOnUse"><stop offset="0" stop-color="#5961c3"/><stop offset=".263" stop-color="#4c54b9"/><stop offset=".656" stop-color="#3f46af"/><stop offset="1" stop-color="#3a41ac"/></linearGradient><path fill="url(#knu3ItpEHUFiec24NryH-b)" d="M14,27h17c0.552,0,1,0.448,1,1v6c0,0.552-0.448,1-1,1H14c-0.552,0-1-0.448-1-1v-6	C13,27.448,13.448,27,14,27z"/><path fill="#33c481" d="M14,18h17c0.552,0,1,0.448,1,1v6c0,0.552-0.448,1-1,1H14c-0.552,0-1-0.448-1-1v-6	C13,18.448,13.448,18,14,18z"/><path fill="#f5be00" d="M23,10H6c-0.552,0-1,0.448-1,1v3c0,0.552,0.448,1,1,1h7v1c0,0.552,0.448,1,1,1h9c0.552,0,1-0.448,1-1	v-1v-3v-1C24,10.448,23.552,10,23,10z"/><path fill="#35c1f1" d="M39,28v6c0,0.552-0.448,1-1,1h-4c-0.552,0-1-0.448-1-1v-6c0-0.552,0.448-1,1-1h4	C38.552,27,39,27.448,39,28z"/><path fill="#1b9de2" d="M35.744,12.399l5.971,4.621c0.437,0.338,0.517,0.966,0.179,1.403l-1.991,2.573	c-0.338,0.437-0.966,0.517-1.403,0.179l-5.971-4.621c-0.437-0.338-0.517-0.966-0.179-1.403l1.991-2.573	C34.679,12.141,35.307,12.061,35.744,12.399z"/><linearGradient id="knu3ItpEHUFiec24NryH-c" x1="25.354" x2="51.909" y1="-5.464" y2="21.091" gradientUnits="userSpaceOnUse"><stop offset="0" stop-color="#e85182"/><stop offset="1" stop-color="#d03767"/></linearGradient><path fill="url(#knu3ItpEHUFiec24NryH-c)" d="M35.734,3.726l7.789,3.286c0.509,0.215,0.747,0.801,0.533,1.31L42.79,11.32	c-0.215,0.509-0.801,0.747-1.31,0.533l-7.789-3.286c-0.509-0.215-0.747-0.801-0.533-1.31l1.265-2.998	C34.638,3.75,35.225,3.511,35.734,3.726z"/></svg>