<svg id="svg" version="1.1" xmlns="http://www.w3.org/2000/svg" xmlns:xlink="http://www.w3.org/1999/xlink" width="400" height="400" viewBox="0, 0, 400,400"><g id="svgg"><path id="path0" d="M7.260 7.580 C 7.432 8.096,7.981 8.188,8.030 7.710 C 8.046 7.550,7.844 7.348,7.580 7.260 C 7.316 7.172,7.172 7.316,7.260 7.580 M6.000 9.092 C 6.330 9.217,6.732 9.518,6.894 9.760 C 7.075 10.031,7.190 9.932,7.194 9.500 C 7.198 9.030,6.905 8.810,6.300 8.832 C 5.699 8.853,5.599 8.939,6.000 9.092 M392.984 9.227 C 392.839 9.461,392.828 9.761,392.960 9.893 C 393.092 10.025,393.200 9.923,393.200 9.667 C 393.200 9.410,393.374 9.200,393.587 9.200 C 393.801 9.200,393.860 9.500,393.719 9.866 C 393.548 10.313,393.617 10.436,393.932 10.242 C 394.189 10.083,394.400 9.693,394.400 9.376 C 394.400 8.707,393.372 8.599,392.984 9.227 M3.000 13.506 C 2.780 13.668,2.560 14.160,2.512 14.600 C 2.463 15.040,2.520 15.185,2.637 14.922 C 2.755 14.660,3.065 14.495,3.326 14.557 C 3.587 14.618,3.665 14.593,3.500 14.501 C 3.335 14.409,3.200 14.158,3.200 13.943 C 3.200 13.728,3.408 13.681,3.662 13.838 C 3.948 14.015,4.015 13.948,3.838 13.662 C 3.505 13.123,3.519 13.125,3.000 13.506 M396.151 13.679 C 395.972 13.969,396.061 14.009,396.406 13.796 C 396.799 13.553,396.864 13.655,396.659 14.191 C 396.425 14.801,396.476 14.835,396.991 14.408 C 397.741 13.785,397.742 13.740,397.013 13.460 C 396.690 13.336,396.302 13.435,396.151 13.679 M0.854 17.329 C 0.783 18.806,2.147 18.681,2.309 17.196 L 2.417 16.200 1.848 17.187 L 1.278 18.174 1.094 17.187 C 0.919 16.253,0.906 16.261,0.854 17.329 M397.600 17.153 C 397.600 17.568,397.915 17.989,398.300 18.090 C 398.819 18.226,399.000 18.031,399.000 17.336 C 399.000 16.711,398.767 16.400,398.300 16.400 C 397.881 16.400,397.600 16.703,397.600 17.153 M399.200 21.400 C 399.200 22.390,399.380 23.200,399.600 23.200 C 399.820 23.200,400.000 22.390,400.000 21.400 C 400.000 20.410,399.820 19.600,399.600 19.600 C 399.380 19.600,399.200 20.410,399.200 21.400 M0.000 21.800 C 0.000 22.570,0.180 23.200,0.400 23.200 C 0.620 23.200,0.800 22.570,0.800 21.800 C 0.800 21.030,0.620 20.400,0.400 20.400 C 0.180 20.400,0.000 21.030,0.000 21.800 M26.421 24.185 C 25.687 24.726,24.617 25.829,24.043 26.635 L 23.000 28.101 22.753 81.350 C 22.304 178.027,22.379 261.170,22.917 263.416 C 23.685 266.621,25.801 268.775,28.597 269.200 L 30.391 269.472 30.495 168.436 C 30.575 91.437,30.713 67.147,31.076 66.338 C 31.696 64.954,34.779 62.000,35.604 62.000 C 35.958 62.000,36.596 61.736,37.024 61.413 C 38.163 60.551,361.090 60.493,362.738 61.355 C 363.322 61.660,364.284 62.101,364.875 62.335 C 365.466 62.569,366.659 63.658,367.527 64.755 L 369.104 66.751 369.355 86.875 C 369.493 97.944,369.560 114.200,369.503 123.000 C 369.446 131.800,369.445 168.295,369.500 204.100 L 369.600 269.200 371.146 269.200 C 373.761 269.200,376.287 266.739,377.083 263.416 C 377.621 261.170,377.696 178.027,377.247 81.350 L 377.000 28.101 375.957 26.635 C 375.383 25.829,374.313 24.726,373.579 24.185 L 372.245 23.200 200.000 23.200 L 27.755 23.200 26.421 24.185 M0.000 323.767 C 0.000 361.256,0.135 380.400,0.400 380.400 C 0.620 380.400,0.800 381.047,0.800 381.837 C 0.800 382.938,0.987 383.324,1.600 383.484 C 2.197 383.640,2.400 384.030,2.400 385.020 C 2.400 385.995,2.612 386.413,3.200 386.600 C 3.640 386.740,4.000 387.202,4.000 387.627 C 4.000 388.052,4.191 388.400,4.424 388.400 C 4.657 388.400,4.744 388.568,4.617 388.772 C 4.491 388.977,4.598 389.275,4.855 389.434 C 5.137 389.608,5.217 389.551,5.055 389.289 C 4.908 389.051,4.998 388.725,5.255 388.566 C 5.535 388.393,5.617 388.449,5.458 388.706 C 5.312 388.942,5.463 389.406,5.793 389.736 C 6.247 390.190,6.273 390.385,5.896 390.541 C 5.594 390.666,5.737 390.849,6.263 391.010 C 6.738 391.155,7.216 391.617,7.326 392.037 C 7.435 392.457,7.791 392.800,8.116 392.800 C 8.441 392.800,8.801 393.160,8.916 393.600 C 9.034 394.053,9.488 394.422,9.963 394.450 C 11.630 394.550,11.798 394.628,11.693 395.261 C 11.566 396.029,13.345 396.495,13.979 395.861 C 14.274 395.566,14.400 395.577,14.400 395.896 C 14.400 396.147,14.217 396.466,13.993 396.604 C 13.389 396.978,13.903 397.558,14.780 397.492 C 15.201 397.460,15.455 397.288,15.345 397.110 C 15.235 396.933,14.932 396.914,14.672 397.070 C 14.318 397.283,14.312 397.209,14.645 396.777 C 15.101 396.187,15.255 394.719,14.833 394.979 C 14.705 395.059,14.648 371.400,14.707 342.405 L 14.814 289.687 10.800 285.343 C 5.618 279.738,2.455 274.285,1.335 269.030 C 0.084 263.164,0.000 266.609,0.000 323.767 M398.879 268.300 C 398.649 268.905,398.356 270.035,398.229 270.810 C 397.987 272.282,395.727 277.013,393.908 279.853 C 393.326 280.762,391.349 283.061,389.515 284.962 C 387.681 286.863,385.959 288.774,385.687 289.209 C 385.055 290.222,384.975 393.414,385.607 393.804 C 385.865 393.964,385.857 394.320,385.584 394.830 C 385.354 395.260,385.308 395.588,385.483 395.558 C 386.379 395.408,386.754 395.667,386.557 396.300 C 386.354 396.953,386.369 396.954,386.780 396.317 C 387.023 395.941,387.458 395.724,387.746 395.835 C 388.035 395.946,388.526 395.724,388.836 395.341 C 389.327 394.736,389.322 394.691,388.800 394.987 C 388.468 395.176,388.339 395.176,388.512 394.986 C 388.683 394.798,389.102 394.603,389.443 394.553 C 390.649 394.376,391.200 394.018,391.200 393.413 C 391.200 393.076,391.487 392.800,391.837 392.800 C 392.188 392.800,392.569 392.440,392.684 392.000 C 392.799 391.560,393.148 391.200,393.459 391.200 C 394.022 391.200,394.379 390.626,394.553 389.443 C 394.603 389.102,394.798 388.683,394.986 388.512 C 395.176 388.339,395.176 388.468,394.987 388.800 C 394.693 389.317,394.740 389.324,395.323 388.851 C 395.695 388.549,396.000 387.976,396.000 387.578 C 396.000 387.180,396.360 386.740,396.800 386.600 C 397.388 386.413,397.600 385.995,397.600 385.020 C 397.600 384.030,397.803 383.640,398.400 383.484 C 399.013 383.324,399.200 382.938,399.200 381.837 C 399.200 381.047,399.380 380.400,399.600 380.400 C 399.865 380.400,400.000 361.267,400.000 323.800 C 400.000 291.543,399.849 267.200,399.649 267.200 C 399.455 267.200,399.109 267.695,398.879 268.300 M16.893 343.627 C 16.964 378.602,16.865 396.311,16.600 396.267 C 16.097 396.183,16.240 398.400,16.771 398.931 C 17.031 399.191,17.354 399.170,17.715 398.870 C 18.139 398.519,18.460 398.596,19.116 399.207 C 20.183 400.202,378.534 400.494,378.935 399.500 C 379.096 399.100,379.143 399.100,379.168 399.500 C 379.212 400.188,379.930 400.127,380.686 399.371 C 381.077 398.980,381.667 398.831,382.247 398.976 C 383.000 399.165,383.129 399.082,382.921 398.539 C 382.748 398.087,382.817 397.963,383.132 398.158 C 383.433 398.344,383.600 398.145,383.600 397.600 C 383.600 397.134,383.465 396.836,383.300 396.938 C 383.135 397.040,383.047 373.217,383.106 343.998 L 383.211 290.873 380.830 291.037 C 379.520 291.127,377.942 291.426,377.324 291.701 C 376.462 292.084,367.381 292.247,338.400 292.400 L 300.600 292.600 300.324 314.400 C 299.844 352.343,299.985 349.386,298.507 352.400 C 295.861 357.796,291.877 360.566,285.850 361.201 C 280.941 361.719,119.059 361.719,114.150 361.201 C 108.063 360.560,104.151 357.883,101.581 352.600 C 99.996 349.342,100.147 352.336,99.675 314.600 L 99.400 292.600 61.600 292.400 C 32.368 292.245,23.541 292.085,22.660 291.695 C 22.032 291.417,20.454 291.128,19.153 291.054 L 16.786 290.920 16.893 343.627 " stroke="none" fill="#e4a60d" fill-rule="evenodd"></path><path id="path1" d="M19.600 0.376 C 19.600 0.583,18.925 0.808,18.100 0.876 C 16.929 0.973,16.626 1.154,16.718 1.700 C 16.815 2.281,16.527 2.400,15.018 2.400 C 13.467 2.400,13.200 2.517,13.200 3.200 C 13.200 3.640,12.975 4.014,12.700 4.031 C 10.971 4.136,10.055 4.588,10.555 5.088 C 10.714 5.247,10.989 5.142,11.166 4.855 C 11.420 4.444,11.540 4.467,11.732 4.966 C 11.910 5.431,11.730 5.600,11.060 5.600 C 9.776 5.600,7.208 7.983,7.168 9.210 C 7.151 9.755,7.046 9.975,6.935 9.700 C 6.690 9.093,5.600 9.030,5.600 9.624 C 5.600 9.857,5.825 9.920,6.100 9.765 C 6.500 9.539,6.500 9.590,6.100 10.021 C 5.825 10.318,5.600 10.878,5.600 11.267 C 5.600 11.749,5.397 11.897,4.966 11.732 C 4.467 11.540,4.444 11.420,4.855 11.166 C 5.142 10.989,5.247 10.714,5.088 10.555 C 4.582 10.048,3.962 11.573,3.887 13.513 C 3.873 13.867,3.738 13.898,3.453 13.613 C 3.226 13.386,2.868 13.200,2.659 13.200 C 2.449 13.200,2.693 13.560,3.200 14.000 C 3.707 14.440,3.951 14.800,3.741 14.800 C 3.532 14.800,3.161 14.601,2.917 14.357 C 2.594 14.034,2.482 14.061,2.500 14.457 C 2.619 16.957,2.353 18.087,1.600 18.284 C 1.160 18.399,0.800 18.817,0.800 19.213 C 0.800 19.609,0.575 20.024,0.300 20.135 C -0.100 20.296,-0.100 20.343,0.300 20.368 C 0.897 20.406,0.996 23.200,0.400 23.200 C -0.315 23.200,-0.137 267.062,0.578 267.336 C 0.896 267.458,1.264 268.242,1.396 269.079 C 2.131 273.726,5.588 279.705,10.800 285.343 L 14.814 289.687 14.707 342.405 C 14.648 371.400,14.705 395.059,14.833 394.979 C 15.213 394.745,15.123 396.159,14.726 396.664 C 14.327 397.172,14.665 397.466,15.600 397.426 C 15.930 397.412,16.208 397.130,16.218 396.800 C 16.228 396.470,16.408 396.230,16.618 396.267 C 16.859 396.309,16.961 376.933,16.893 343.627 L 16.786 290.920 19.153 291.054 C 20.454 291.128,22.032 291.417,22.660 291.695 C 23.542 292.085,32.389 292.245,61.706 292.400 L 99.613 292.600 99.506 281.600 L 99.400 270.600 65.600 270.504 L 31.800 270.408 31.100 269.560 C 30.715 269.093,30.400 268.883,30.400 269.092 C 30.400 269.317,29.665 269.362,28.602 269.200 C 25.801 268.775,23.685 266.623,22.917 263.416 C 22.379 261.170,22.304 178.027,22.753 81.350 L 23.000 28.101 24.043 26.635 C 24.617 25.829,25.687 24.726,26.421 24.185 L 27.755 23.200 200.000 23.200 L 372.245 23.200 373.579 24.185 C 374.313 24.726,375.383 25.829,375.957 26.635 L 377.000 28.101 377.247 81.350 C 377.696 178.027,377.621 261.170,377.083 263.416 C 376.266 266.827,373.768 269.200,370.995 269.200 C 369.977 269.200,369.099 269.439,368.802 269.798 C 368.370 270.318,363.915 270.409,334.453 270.498 L 300.600 270.600 300.494 281.600 L 300.387 292.600 338.294 292.400 C 367.360 292.247,376.462 292.084,377.324 291.701 C 377.942 291.426,379.520 291.127,380.830 291.037 L 383.211 290.873 383.106 343.998 C 383.047 373.217,383.135 397.040,383.300 396.938 C 383.465 396.836,383.600 396.943,383.600 397.176 C 383.600 397.409,384.061 397.600,384.624 397.600 C 385.336 397.600,385.556 397.448,385.347 397.100 C 385.143 396.760,385.263 396.776,385.723 397.149 C 386.095 397.451,386.415 397.631,386.433 397.549 C 386.798 395.921,386.540 395.381,385.483 395.558 C 385.308 395.588,385.354 395.260,385.584 394.830 C 385.857 394.320,385.865 393.964,385.607 393.804 C 384.975 393.414,385.055 290.222,385.687 289.209 C 385.959 288.774,387.681 286.863,389.515 284.962 C 391.349 283.061,393.326 280.762,393.908 279.853 C 395.727 277.013,397.987 272.282,398.229 270.810 C 398.539 268.922,399.216 267.200,399.649 267.200 C 400.150 267.200,400.111 23.305,399.610 23.133 C 399.395 23.060,399.182 21.560,399.137 19.800 C 399.092 18.040,398.984 16.915,398.898 17.300 C 398.384 19.595,397.215 17.025,397.588 14.422 C 397.658 13.934,397.569 13.927,397.026 14.378 C 396.473 14.837,396.417 14.820,396.634 14.257 C 396.772 13.895,397.076 13.600,397.309 13.600 C 397.543 13.600,397.618 13.484,397.476 13.343 C 397.335 13.202,396.975 13.289,396.676 13.537 C 396.269 13.875,396.128 13.864,396.113 13.494 C 396.035 11.565,395.416 10.051,394.912 10.555 C 394.753 10.714,394.858 10.989,395.145 11.166 C 395.556 11.420,395.533 11.540,395.034 11.732 C 394.558 11.914,394.400 11.722,394.400 10.964 C 394.400 10.294,394.242 10.050,393.932 10.242 C 393.617 10.436,393.548 10.313,393.719 9.866 C 393.968 9.217,393.433 8.902,393.099 9.500 C 393.007 9.665,392.989 9.566,393.061 9.280 C 393.275 8.422,390.194 5.600,389.044 5.600 C 388.279 5.600,388.086 5.442,388.268 4.966 C 388.460 4.467,388.580 4.444,388.834 4.855 C 389.011 5.142,389.286 5.247,389.445 5.088 C 389.945 4.588,389.029 4.136,387.300 4.031 C 387.025 4.014,386.800 3.650,386.800 3.223 C 386.800 2.595,386.474 2.422,385.100 2.323 C 383.910 2.237,383.400 2.020,383.400 1.600 C 383.400 1.195,382.911 0.960,381.900 0.876 C 381.075 0.808,380.397 0.538,380.394 0.276 C 380.390 -0.016,380.224 0.032,379.963 0.400 C 379.644 0.852,379.489 0.876,379.336 0.500 C 379.083 -0.123,19.600 -0.247,19.600 0.376 M1.206 17.300 C 1.211 18.028,1.286 18.085,1.600 17.600 C 2.101 16.824,2.101 16.400,1.600 16.400 C 1.380 16.400,1.203 16.805,1.206 17.300 M37.000 61.467 L 36.200 62.108 37.000 61.754 C 38.205 61.221,361.423 61.089,362.524 61.621 C 363.370 62.030,363.373 62.023,362.624 61.422 C 361.414 60.453,38.209 60.497,37.000 61.467 M369.380 100.800 C 369.380 108.610,369.434 111.805,369.499 107.900 C 369.565 103.995,369.565 97.605,369.499 93.700 C 369.434 89.795,369.380 92.990,369.380 100.800 M100.077 338.700 L 100.200 349.800 101.572 352.600 C 104.163 357.889,108.070 360.561,114.150 361.201 C 119.059 361.719,280.941 361.719,285.850 361.201 C 291.874 360.567,295.849 357.804,298.515 352.400 L 299.797 349.800 299.923 341.000 C 299.993 336.160,299.993 331.120,299.925 329.800 L 299.800 327.400 299.251 328.954 C 298.306 331.629,294.340 336.374,293.031 336.394 C 292.829 336.397,292.379 336.641,292.031 336.935 C 291.684 337.229,290.217 337.859,288.772 338.335 L 286.144 339.200 200.000 339.200 L 113.856 339.200 111.228 338.335 C 109.783 337.859,108.316 337.229,107.969 336.935 C 107.621 336.641,107.164 336.400,106.953 336.400 C 106.582 336.400,103.149 333.191,102.071 331.836 C 101.780 331.470,101.268 330.368,100.933 329.386 C 99.979 326.585,99.946 326.942,100.077 338.700 M10.823 395.028 C 11.080 395.338,11.462 395.485,11.672 395.356 C 12.138 395.068,11.792 394.675,10.966 394.554 C 10.484 394.483,10.454 394.583,10.823 395.028 M13.594 396.207 C 13.205 396.676,13.190 396.931,13.534 397.220 C 13.786 397.433,13.906 397.487,13.800 397.340 C 13.694 397.194,13.811 396.828,14.060 396.527 C 14.310 396.227,14.424 395.891,14.314 395.781 C 14.204 395.671,13.880 395.863,13.594 396.207 M17.166 398.120 C 17.344 398.604,17.806 399.062,18.193 399.138 C 18.628 399.224,18.790 399.108,18.620 398.832 C 18.468 398.587,18.147 398.509,17.904 398.659 C 17.626 398.831,17.553 398.699,17.707 398.299 C 17.844 397.940,17.709 397.574,17.395 397.453 C 16.973 397.291,16.918 397.450,17.166 398.120 " stroke="none" fill="#f4d42c" fill-rule="evenodd"></path><path id="path2" d="M36.937 62.782 C 35.425 63.143,33.817 64.351,32.538 66.084 L 31.600 67.355 31.600 164.290 C 31.600 249.657,31.671 261.252,32.194 261.453 C 32.724 261.656,33.995 260.863,36.100 259.015 C 36.485 258.677,36.952 258.400,37.138 258.400 C 37.324 258.400,37.802 258.040,38.200 257.600 C 38.598 257.160,39.140 256.800,39.404 256.800 C 39.826 256.800,40.679 256.158,42.800 254.243 C 43.130 253.945,43.788 253.582,44.263 253.435 C 44.738 253.289,45.227 252.906,45.350 252.585 C 45.474 252.263,45.823 252.000,46.125 252.000 C 46.428 252.000,47.002 251.640,47.400 251.200 C 47.798 250.760,48.338 250.400,48.600 250.400 C 48.862 250.400,49.402 250.040,49.800 249.600 C 50.198 249.160,50.726 248.800,50.973 248.800 C 51.220 248.800,51.726 248.485,52.097 248.100 C 53.551 246.592,54.285 246.000,54.700 246.000 C 55.106 246.000,56.309 245.101,58.042 243.500 C 58.459 243.115,58.925 242.800,59.078 242.800 C 59.516 242.800,62.564 240.658,62.920 240.101 C 63.096 239.826,63.473 239.600,63.758 239.600 C 64.043 239.600,64.602 239.240,65.000 238.800 C 65.398 238.360,65.956 238.000,66.239 238.000 C 66.523 238.000,66.993 237.685,67.283 237.300 C 67.825 236.582,68.500 236.105,70.600 234.951 C 71.260 234.588,71.944 234.046,72.120 233.746 C 72.296 233.446,72.692 233.200,73.000 233.200 C 73.308 233.200,73.704 232.956,73.880 232.658 C 74.056 232.361,74.639 231.886,75.175 231.604 C 76.185 231.073,76.745 230.662,77.989 229.539 C 78.392 229.176,79.082 228.764,79.524 228.624 C 79.965 228.484,80.427 228.106,80.550 227.785 C 80.674 227.463,81.024 227.200,81.329 227.200 C 81.634 227.200,82.404 226.755,83.042 226.210 C 83.679 225.666,84.472 224.991,84.805 224.710 C 85.139 224.430,85.904 223.979,86.505 223.709 C 87.107 223.438,87.600 223.033,87.600 222.809 C 87.600 222.584,87.868 222.400,88.197 222.400 C 88.525 222.400,89.018 222.040,89.293 221.600 C 89.568 221.160,90.081 220.800,90.434 220.800 C 90.787 220.800,91.402 220.440,91.800 220.000 C 92.198 219.560,92.760 219.200,93.048 219.200 C 93.336 219.200,93.765 218.840,94.000 218.400 C 94.235 217.960,94.697 217.600,95.027 217.600 C 95.356 217.600,95.729 217.330,95.855 217.000 C 95.982 216.670,96.312 216.400,96.588 216.400 C 96.864 216.400,97.790 215.842,98.645 215.159 C 99.500 214.477,101.190 213.277,102.400 212.492 C 103.610 211.707,104.784 210.870,105.009 210.632 C 105.234 210.395,105.774 209.971,106.209 209.691 C 106.644 209.411,107.585 208.808,108.300 208.351 C 109.015 207.895,109.600 207.359,109.600 207.160 C 109.600 206.962,109.872 206.800,110.204 206.800 C 110.536 206.800,111.116 206.440,111.493 206.000 C 111.870 205.560,112.410 205.200,112.693 205.200 C 112.976 205.200,113.516 204.840,113.893 204.400 C 114.270 203.960,114.801 203.600,115.075 203.600 C 115.348 203.600,115.765 203.240,116.000 202.800 C 116.235 202.360,116.676 202.000,116.978 202.000 C 117.281 202.000,118.439 201.280,119.552 200.400 C 120.666 199.520,121.762 198.800,121.988 198.800 C 122.215 198.800,122.400 198.622,122.400 198.405 C 122.400 198.188,123.030 197.748,123.800 197.426 C 124.570 197.104,125.200 196.647,125.200 196.411 C 125.200 196.174,125.650 195.809,126.200 195.600 C 126.750 195.391,127.200 195.035,127.200 194.810 C 127.200 194.584,127.415 194.400,127.678 194.400 C 128.268 194.400,131.282 192.388,131.720 191.701 C 131.896 191.426,132.230 191.200,132.462 191.200 C 132.864 191.200,134.672 189.883,136.034 188.598 C 136.382 188.269,136.849 188.000,137.072 188.000 C 137.294 188.000,137.802 187.640,138.200 187.200 C 138.598 186.760,139.153 186.400,139.433 186.400 C 140.035 186.400,141.600 184.512,141.600 183.786 C 141.600 183.195,140.719 182.273,120.400 161.594 C 97.299 138.085,94.975 135.707,85.000 125.358 C 79.940 120.108,73.968 113.920,71.729 111.606 C 69.491 109.293,66.251 105.884,64.529 104.030 C 62.808 102.177,60.005 99.238,58.300 97.499 C 56.595 95.760,55.200 94.183,55.200 93.995 C 55.200 93.808,54.840 93.540,54.400 93.400 C 53.960 93.260,53.600 92.969,53.600 92.753 C 53.600 92.537,52.520 91.284,51.200 89.968 C 49.880 88.652,48.800 87.401,48.800 87.188 C 48.800 86.974,48.530 86.800,48.200 86.800 C 47.867 86.800,47.600 86.444,47.600 86.000 C 47.600 85.560,47.420 85.200,47.200 85.200 C 46.967 85.200,46.800 83.867,46.800 82.000 C 46.800 80.133,46.967 78.800,47.200 78.800 C 47.420 78.800,47.600 79.076,47.600 79.413 C 47.600 79.749,47.915 80.144,48.300 80.290 C 48.685 80.435,49.907 81.509,51.015 82.677 C 52.123 83.845,53.236 84.800,53.488 84.800 C 53.740 84.800,54.060 85.160,54.200 85.600 C 54.340 86.040,54.700 86.400,55.000 86.400 C 55.300 86.400,55.660 86.760,55.800 87.200 C 55.940 87.640,56.199 88.000,56.376 88.000 C 56.553 88.000,58.865 90.115,61.513 92.700 C 76.500 107.326,103.135 133.553,120.981 151.257 C 132.211 162.399,143.190 173.199,145.378 175.257 C 147.566 177.316,151.969 181.673,155.162 184.941 C 163.192 193.156,168.778 197.554,174.800 200.398 C 176.230 201.074,177.741 201.818,178.158 202.053 C 179.389 202.745,183.247 204.025,185.400 204.455 C 186.500 204.675,188.390 205.142,189.600 205.492 C 195.211 207.119,210.653 206.150,216.800 203.785 C 217.570 203.489,218.650 203.129,219.200 202.986 C 226.072 201.198,234.395 195.358,244.200 185.443 C 247.500 182.106,254.250 175.444,259.200 170.638 C 264.150 165.832,276.668 153.507,287.018 143.250 C 321.555 109.021,344.717 86.400,345.229 86.400 C 345.403 86.400,345.660 86.040,345.800 85.600 C 345.940 85.160,346.246 84.800,346.480 84.800 C 346.714 84.800,347.467 84.206,348.153 83.480 C 348.839 82.754,349.715 82.039,350.100 81.892 C 350.485 81.745,350.800 81.349,350.800 81.013 C 350.800 80.676,351.087 80.400,351.437 80.400 C 351.788 80.400,352.169 80.040,352.284 79.600 C 352.751 77.813,353.200 78.989,353.200 82.000 C 353.200 83.867,353.033 85.200,352.800 85.200 C 352.580 85.200,352.400 85.560,352.400 86.000 C 352.400 86.465,352.133 86.800,351.763 86.800 C 351.412 86.800,351.031 87.160,350.916 87.600 C 350.801 88.040,350.458 88.400,350.153 88.400 C 349.849 88.400,349.600 88.573,349.600 88.785 C 349.600 88.996,348.880 89.882,348.000 90.753 C 347.120 91.624,346.400 92.531,346.400 92.769 C 346.400 93.006,346.124 93.200,345.787 93.200 C 345.451 93.200,345.072 93.469,344.946 93.797 C 344.820 94.126,342.980 96.165,340.858 98.328 C 338.736 100.492,335.748 103.598,334.217 105.231 C 331.834 107.773,322.614 117.340,305.726 134.790 C 296.782 144.032,263.015 178.512,259.531 181.961 C 257.090 184.377,257.733 187.876,260.638 187.984 C 260.879 187.993,261.402 188.360,261.800 188.800 C 262.198 189.240,262.766 189.600,263.062 189.600 C 263.358 189.600,263.600 189.789,263.600 190.020 C 263.600 190.252,264.199 190.691,264.932 190.997 C 265.664 191.303,266.496 191.834,266.781 192.177 C 267.065 192.520,267.546 192.800,267.849 192.800 C 268.152 192.800,268.400 192.951,268.400 193.135 C 268.400 193.320,269.525 194.210,270.900 195.114 C 275.567 198.182,276.999 199.176,277.634 199.788 C 277.982 200.125,278.449 200.400,278.672 200.400 C 278.894 200.400,279.402 200.760,279.800 201.200 C 280.198 201.640,280.768 202.000,281.066 202.000 C 281.364 202.000,281.916 202.360,282.293 202.800 C 282.670 203.240,283.168 203.600,283.400 203.600 C 283.632 203.600,284.130 203.960,284.507 204.400 C 284.884 204.840,285.455 205.200,285.776 205.200 C 286.097 205.200,286.504 205.426,286.680 205.701 C 287.065 206.303,290.100 208.400,290.588 208.400 C 290.778 208.400,291.218 208.662,291.566 208.981 C 293.632 210.877,294.027 211.200,294.278 211.200 C 294.716 211.200,297.764 213.342,298.120 213.899 C 298.296 214.174,298.673 214.400,298.958 214.400 C 299.243 214.400,299.802 214.760,300.200 215.200 C 300.598 215.640,301.134 216.000,301.390 216.000 C 301.646 216.000,302.473 216.561,303.228 217.247 C 303.983 217.934,305.169 218.739,305.863 219.038 C 306.558 219.336,307.188 219.724,307.263 219.900 C 307.390 220.196,313.513 224.448,315.235 225.436 C 315.653 225.675,316.325 226.170,316.729 226.536 C 317.133 226.901,317.674 227.200,317.931 227.200 C 318.189 227.200,318.400 227.344,318.400 227.520 C 318.400 227.696,319.885 228.812,321.700 230.000 C 323.515 231.188,325.090 232.277,325.200 232.420 C 325.310 232.563,325.839 232.912,326.375 233.194 C 326.911 233.477,327.541 233.861,327.775 234.048 C 328.009 234.235,328.766 234.841,329.458 235.394 C 330.150 235.947,330.998 236.400,331.344 236.400 C 331.689 236.400,332.165 236.760,332.400 237.200 C 332.635 237.640,333.052 238.000,333.325 238.000 C 333.599 238.000,334.130 238.360,334.507 238.800 C 334.884 239.240,335.511 239.600,335.900 239.600 C 336.289 239.600,336.832 239.960,337.107 240.400 C 337.382 240.840,337.875 241.200,338.203 241.200 C 338.532 241.200,338.800 241.389,338.800 241.620 C 338.800 241.852,339.414 242.297,340.163 242.610 C 340.913 242.924,341.588 243.320,341.663 243.490 C 341.739 243.661,343.150 244.697,344.800 245.793 C 346.450 246.889,347.944 248.014,348.120 248.293 C 348.296 248.572,348.673 248.800,348.958 248.800 C 349.243 248.800,349.802 249.160,350.200 249.600 C 350.598 250.040,351.168 250.400,351.466 250.400 C 351.764 250.400,352.316 250.760,352.693 251.200 C 353.070 251.640,353.568 252.000,353.800 252.000 C 354.032 252.000,354.530 252.360,354.907 252.800 C 355.284 253.240,355.836 253.600,356.134 253.600 C 356.432 253.600,357.002 253.960,357.400 254.400 C 357.798 254.840,358.366 255.200,358.662 255.200 C 358.958 255.200,359.200 255.389,359.200 255.620 C 359.200 255.852,359.814 256.297,360.563 256.610 C 361.313 256.924,361.988 257.320,362.063 257.490 C 362.435 258.334,367.796 261.532,368.082 261.081 C 368.910 259.778,368.434 67.751,367.600 66.691 C 367.160 66.131,366.800 65.502,366.800 65.291 C 366.800 65.081,366.050 64.389,365.134 63.754 L 363.468 62.600 200.834 62.540 C 111.385 62.507,37.632 62.615,36.937 62.782 M143.900 188.676 C 143.515 188.776,143.200 189.002,143.200 189.177 C 143.200 189.352,142.120 190.172,140.800 191.000 C 139.480 191.828,138.400 192.661,138.400 192.852 C 138.400 193.044,138.201 193.200,137.958 193.200 C 137.549 193.200,135.988 194.304,134.300 195.785 C 133.915 196.123,133.457 196.400,133.281 196.400 C 132.967 196.400,132.212 196.930,130.006 198.700 C 129.389 199.195,128.694 199.600,128.462 199.600 C 128.230 199.600,127.896 199.832,127.720 200.116 C 127.544 200.399,125.870 201.664,124.000 202.925 C 119.748 205.793,116.661 207.995,116.400 208.347 C 116.290 208.495,115.705 208.834,115.100 209.100 C 114.495 209.365,114.000 209.767,114.000 209.991 C 114.000 210.216,113.758 210.400,113.462 210.400 C 113.166 210.400,112.598 210.760,112.200 211.200 C 111.802 211.640,111.305 212.000,111.096 212.000 C 110.729 212.000,108.876 213.366,107.566 214.602 C 107.218 214.931,106.768 215.212,106.566 215.227 C 106.365 215.241,105.390 215.875,104.400 216.636 C 103.410 217.397,102.285 218.126,101.900 218.256 C 101.515 218.387,101.200 218.629,101.200 218.794 C 101.200 218.960,100.120 219.772,98.800 220.600 C 97.480 221.428,96.400 222.261,96.400 222.452 C 96.400 222.644,96.175 222.802,95.900 222.805 C 95.625 222.808,94.950 223.165,94.400 223.599 C 90.814 226.426,89.246 227.531,88.477 227.776 C 87.994 227.929,87.600 228.212,87.600 228.405 C 87.600 228.598,87.168 228.991,86.640 229.278 C 85.053 230.141,81.308 232.787,80.788 233.414 C 80.521 233.736,80.152 234.000,79.969 234.000 C 79.600 234.000,76.739 235.879,76.409 236.338 C 76.219 236.601,72.435 239.232,70.854 240.200 C 70.494 240.420,70.089 240.751,69.954 240.936 C 69.819 241.121,69.358 241.481,68.929 241.736 C 66.465 243.204,65.200 244.121,65.200 244.440 C 65.200 244.638,65.029 244.800,64.820 244.800 C 64.611 244.800,63.605 245.385,62.585 246.100 C 61.564 246.815,60.424 247.580,60.050 247.800 C 59.676 248.020,59.107 248.422,58.785 248.694 C 56.835 250.340,55.636 251.200,55.291 251.200 C 55.075 251.200,54.686 251.455,54.428 251.766 C 54.169 252.078,52.662 253.200,51.079 254.260 C 49.495 255.319,48.056 256.414,47.880 256.693 C 47.704 256.972,47.344 257.200,47.080 257.200 C 46.639 257.201,45.249 258.199,43.500 259.771 C 43.115 260.117,42.675 260.400,42.522 260.400 C 42.084 260.400,39.036 262.542,38.680 263.099 C 38.504 263.374,38.127 263.600,37.842 263.600 C 37.557 263.600,36.998 263.960,36.600 264.400 C 36.202 264.840,35.713 265.200,35.515 265.200 C 35.316 265.200,34.445 265.769,33.580 266.464 C 30.573 268.881,29.441 268.800,66.225 268.800 C 92.448 268.800,99.622 268.907,99.876 269.300 C 100.054 269.575,100.290 278.260,100.400 288.600 L 100.600 307.400 200.000 307.400 L 299.400 307.400 299.600 288.600 C 299.710 278.260,299.946 269.575,300.124 269.300 C 300.378 268.907,307.515 268.800,333.591 268.800 C 351.820 268.800,367.019 268.691,367.367 268.557 C 368.326 268.189,368.125 267.228,367.000 266.800 C 366.450 266.591,366.000 266.249,366.000 266.039 C 366.000 265.830,365.505 265.409,364.900 265.103 C 362.734 264.009,361.802 263.389,361.282 262.700 C 360.992 262.315,360.523 262.000,360.239 262.000 C 359.956 262.000,359.398 261.640,359.000 261.200 C 358.602 260.760,358.034 260.400,357.738 260.400 C 357.442 260.400,356.859 260.085,356.442 259.700 C 354.617 258.015,353.495 257.200,352.999 257.200 C 352.706 257.200,352.407 257.032,352.333 256.828 C 352.172 256.378,346.886 252.800,346.383 252.800 C 346.188 252.800,345.835 252.440,345.600 252.000 C 345.365 251.560,344.924 251.200,344.622 251.200 C 344.319 251.200,343.161 250.480,342.048 249.600 C 340.934 248.720,339.866 248.000,339.674 248.000 C 339.481 248.000,338.998 247.640,338.600 247.200 C 338.202 246.760,337.719 246.400,337.526 246.400 C 337.334 246.400,336.266 245.680,335.152 244.800 C 334.039 243.920,332.883 243.200,332.584 243.200 C 332.285 243.200,331.896 242.972,331.720 242.693 C 331.544 242.414,330.050 241.292,328.400 240.200 C 326.750 239.108,325.256 237.986,325.080 237.707 C 324.904 237.428,324.499 237.200,324.180 237.200 C 323.861 237.200,323.269 236.885,322.865 236.500 C 322.461 236.115,321.858 235.620,321.525 235.400 C 321.192 235.180,320.128 234.464,319.160 233.808 C 318.192 233.153,317.101 232.433,316.735 232.208 C 316.370 231.984,315.236 231.215,314.215 230.500 C 313.195 229.785,312.249 229.200,312.114 229.200 C 311.978 229.200,311.582 228.931,311.234 228.602 C 309.849 227.295,308.061 226.000,307.642 226.000 C 307.399 226.000,306.795 225.632,306.300 225.181 C 305.805 224.731,305.125 224.112,304.789 223.805 C 304.453 223.499,303.688 223.062,303.089 222.834 C 302.490 222.606,302.000 222.235,302.000 222.010 C 302.000 221.784,301.801 221.600,301.558 221.600 C 301.315 221.600,300.581 221.150,299.927 220.600 C 299.273 220.050,298.482 219.600,298.169 219.600 C 297.856 219.600,297.600 219.416,297.600 219.190 C 297.600 218.965,297.150 218.609,296.600 218.400 C 296.050 218.191,295.600 217.869,295.600 217.684 C 295.600 217.499,295.015 217.037,294.300 216.658 C 292.409 215.653,291.447 215.064,290.785 214.506 C 288.693 212.740,287.616 212.000,287.138 212.000 C 286.838 212.000,286.368 211.640,286.093 211.200 C 285.818 210.760,285.325 210.400,284.997 210.400 C 284.668 210.400,284.400 210.211,284.400 209.980 C 284.400 209.748,283.770 209.296,283.000 208.974 C 282.230 208.652,281.600 208.212,281.600 207.995 C 281.600 207.778,281.358 207.600,281.062 207.600 C 280.766 207.600,280.202 207.245,279.809 206.810 C 279.416 206.376,278.740 205.908,278.308 205.771 C 277.593 205.544,277.182 205.231,275.166 203.381 C 274.818 203.062,274.339 202.800,274.102 202.800 C 273.866 202.800,272.790 202.103,271.713 201.251 C 270.635 200.399,269.375 199.583,268.914 199.436 C 268.452 199.289,267.973 198.906,267.850 198.585 C 267.726 198.263,267.434 198.000,267.201 198.000 C 266.967 198.000,265.866 197.280,264.752 196.400 C 263.639 195.520,262.483 194.800,262.184 194.800 C 261.885 194.800,261.496 194.574,261.320 194.299 C 260.882 193.612,257.868 191.600,257.278 191.600 C 257.015 191.600,256.800 191.425,256.800 191.210 C 256.800 190.640,254.606 189.600,253.402 189.600 C 252.584 189.600,250.644 191.324,244.281 197.700 C 239.836 202.155,235.596 206.250,234.860 206.800 C 234.124 207.350,233.044 208.169,232.461 208.619 C 230.731 209.954,226.348 212.571,224.200 213.550 C 223.100 214.052,221.750 214.697,221.200 214.985 C 220.650 215.272,219.573 215.642,218.806 215.806 C 218.039 215.971,217.049 216.334,216.606 216.614 C 216.163 216.894,214.990 217.247,214.000 217.397 C 213.010 217.548,211.390 217.954,210.400 218.299 C 208.098 219.100,191.722 219.206,189.806 218.431 C 189.149 218.166,187.529 217.701,186.206 217.399 C 175.081 214.862,168.732 210.747,155.200 197.303 C 145.520 187.686,146.072 188.108,143.900 188.676 " stroke="none" fill="#f2f2f0" fill-rule="evenodd"></path><path id="path3" d="M46.800 82.000 C 46.800 83.867,46.967 85.200,47.200 85.200 C 47.420 85.200,47.600 85.560,47.600 86.000 C 47.600 86.444,47.867 86.800,48.200 86.800 C 48.530 86.800,48.800 86.974,48.800 87.188 C 48.800 87.401,49.880 88.652,51.200 89.968 C 52.520 91.284,53.600 92.537,53.600 92.753 C 53.600 92.969,53.960 93.260,54.400 93.400 C 54.840 93.540,55.200 93.808,55.200 93.995 C 55.200 94.183,56.595 95.760,58.300 97.499 C 60.005 99.238,62.808 102.177,64.529 104.030 C 66.251 105.884,69.491 109.293,71.729 111.606 C 73.968 113.920,79.940 120.108,85.000 125.358 C 94.975 135.707,97.299 138.085,120.400 161.594 C 140.719 182.273,141.600 183.195,141.600 183.786 C 141.600 184.512,140.035 186.400,139.433 186.400 C 139.153 186.400,138.598 186.760,138.200 187.200 C 137.802 187.640,137.294 188.000,137.072 188.000 C 136.849 188.000,136.382 188.269,136.034 188.598 C 134.672 189.883,132.864 191.200,132.462 191.200 C 132.230 191.200,131.896 191.426,131.720 191.701 C 131.282 192.388,128.268 194.400,127.678 194.400 C 127.415 194.400,127.200 194.584,127.200 194.810 C 127.200 195.035,126.750 195.391,126.200 195.600 C 125.650 195.809,125.200 196.174,125.200 196.411 C 125.200 196.647,124.570 197.104,123.800 197.426 C 123.030 197.748,122.400 198.188,122.400 198.405 C 122.400 198.622,122.215 198.800,121.988 198.800 C 121.762 198.800,120.666 199.520,119.552 200.400 C 118.439 201.280,117.281 202.000,116.978 202.000 C 116.676 202.000,116.235 202.360,116.000 202.800 C 115.765 203.240,115.348 203.600,115.075 203.600 C 114.801 203.600,114.270 203.960,113.893 204.400 C 113.516 204.840,112.976 205.200,112.693 205.200 C 112.410 205.200,111.870 205.560,111.493 206.000 C 111.116 206.440,110.536 206.800,110.204 206.800 C 109.872 206.800,109.600 206.962,109.600 207.160 C 109.600 207.359,109.015 207.895,108.300 208.351 C 107.585 208.808,106.644 209.411,106.209 209.691 C 105.774 209.971,105.234 210.395,105.009 210.632 C 104.784 210.870,103.610 211.707,102.400 212.492 C 101.190 213.277,99.500 214.477,98.645 215.159 C 97.790 215.842,96.864 216.400,96.588 216.400 C 96.312 216.400,95.982 216.670,95.855 217.000 C 95.729 217.330,95.356 217.600,95.027 217.600 C 94.697 217.600,94.235 217.960,94.000 218.400 C 93.765 218.840,93.336 219.200,93.048 219.200 C 92.760 219.200,92.198 219.560,91.800 220.000 C 91.402 220.440,90.787 220.800,90.434 220.800 C 90.081 220.800,89.568 221.160,89.293 221.600 C 89.018 222.040,88.525 222.400,88.197 222.400 C 87.868 222.400,87.600 222.584,87.600 222.809 C 87.600 223.033,87.107 223.438,86.505 223.709 C 85.904 223.979,85.139 224.430,84.805 224.710 C 84.472 224.991,83.679 225.666,83.042 226.210 C 82.404 226.755,81.634 227.200,81.329 227.200 C 81.024 227.200,80.674 227.463,80.550 227.785 C 80.427 228.106,79.965 228.484,79.524 228.624 C 79.082 228.764,78.392 229.176,77.989 229.539 C 76.745 230.662,76.185 231.073,75.175 231.604 C 74.639 231.886,74.056 232.361,73.880 232.658 C 73.704 232.956,73.308 233.200,73.000 233.200 C 72.692 233.200,72.296 233.446,72.120 233.746 C 71.944 234.046,71.260 234.588,70.600 234.951 C 68.500 236.105,67.825 236.582,67.283 237.300 C 66.993 237.685,66.523 238.000,66.239 238.000 C 65.956 238.000,65.398 238.360,65.000 238.800 C 64.602 239.240,64.043 239.600,63.758 239.600 C 63.473 239.600,63.096 239.826,62.920 240.101 C 62.564 240.658,59.516 242.800,59.078 242.800 C 58.925 242.800,58.459 243.115,58.042 243.500 C 56.265 245.141,55.101 246.000,54.655 246.000 C 54.392 246.000,53.874 246.315,53.503 246.700 C 52.069 248.187,51.318 248.800,50.928 248.800 C 50.706 248.800,50.198 249.160,49.800 249.600 C 49.402 250.040,48.862 250.400,48.600 250.400 C 48.338 250.400,47.798 250.760,47.400 251.200 C 47.002 251.640,46.428 252.000,46.125 252.000 C 45.823 252.000,45.474 252.263,45.350 252.585 C 45.227 252.906,44.738 253.289,44.263 253.435 C 43.788 253.582,43.130 253.945,42.800 254.243 C 40.679 256.158,39.826 256.800,39.404 256.800 C 39.140 256.800,38.598 257.160,38.200 257.600 C 37.802 258.040,37.324 258.400,37.138 258.400 C 36.952 258.400,36.485 258.677,36.100 259.015 C 33.437 261.352,32.720 261.743,31.959 261.267 C 31.236 260.816,31.200 260.955,31.200 264.164 C 31.200 267.927,31.406 268.800,32.292 268.800 C 32.753 268.800,32.792 268.672,32.453 268.264 C 32.018 267.740,34.556 265.200,35.515 265.200 C 35.713 265.200,36.202 264.840,36.600 264.400 C 36.998 263.960,37.557 263.600,37.842 263.600 C 38.127 263.600,38.504 263.374,38.680 263.099 C 39.036 262.542,42.084 260.400,42.522 260.400 C 42.675 260.400,43.115 260.117,43.500 259.771 C 45.249 258.199,46.639 257.201,47.080 257.200 C 47.344 257.200,47.704 256.972,47.880 256.693 C 48.056 256.414,49.495 255.319,51.079 254.260 C 52.662 253.200,54.169 252.078,54.428 251.766 C 54.686 251.455,55.075 251.200,55.291 251.200 C 55.636 251.200,56.835 250.340,58.785 248.694 C 59.107 248.422,59.676 248.020,60.050 247.800 C 60.424 247.580,61.564 246.815,62.585 246.100 C 63.605 245.385,64.611 244.800,64.820 244.800 C 65.029 244.800,65.200 244.638,65.200 244.440 C 65.200 244.121,66.465 243.204,68.929 241.736 C 69.358 241.481,69.819 241.121,69.954 240.936 C 70.089 240.751,70.494 240.420,70.854 240.200 C 72.435 239.232,76.219 236.601,76.409 236.338 C 76.739 235.879,79.600 234.000,79.969 234.000 C 80.152 234.000,80.521 233.736,80.788 233.414 C 81.308 232.787,85.053 230.141,86.640 229.278 C 87.168 228.991,87.600 228.598,87.600 228.405 C 87.600 228.212,87.994 227.929,88.477 227.776 C 89.246 227.531,90.814 226.426,94.400 223.599 C 94.950 223.165,95.625 222.808,95.900 222.805 C 96.175 222.802,96.400 222.644,96.400 222.452 C 96.400 222.261,97.480 221.428,98.800 220.600 C 100.120 219.772,101.200 218.960,101.200 218.794 C 101.200 218.629,101.515 218.387,101.900 218.256 C 102.285 218.126,103.410 217.397,104.400 216.636 C 105.390 215.875,106.365 215.241,106.566 215.227 C 106.768 215.212,107.218 214.931,107.566 214.602 C 108.876 213.366,110.729 212.000,111.096 212.000 C 111.305 212.000,111.802 211.640,112.200 211.200 C 112.598 210.760,113.166 210.400,113.462 210.400 C 113.758 210.400,114.000 210.216,114.000 209.991 C 114.000 209.767,114.495 209.365,115.100 209.100 C 115.705 208.834,116.290 208.495,116.400 208.347 C 116.661 207.995,119.748 205.793,124.000 202.925 C 125.870 201.664,127.544 200.399,127.720 200.116 C 127.896 199.832,128.230 199.600,128.462 199.600 C 128.694 199.600,129.389 199.195,130.006 198.700 C 132.212 196.930,132.967 196.400,133.281 196.400 C 133.457 196.400,133.915 196.123,134.300 195.785 C 135.988 194.304,137.549 193.200,137.958 193.200 C 138.201 193.200,138.400 193.044,138.400 192.852 C 138.400 192.661,139.480 191.828,140.800 191.000 C 142.120 190.172,143.200 189.353,143.200 189.179 C 143.200 188.648,145.525 188.318,146.285 188.742 C 146.678 188.961,150.690 192.810,155.200 197.295 C 168.720 210.740,175.075 214.860,186.206 217.399 C 187.529 217.701,189.149 218.166,189.806 218.431 C 191.722 219.206,208.098 219.100,210.400 218.299 C 211.390 217.954,213.010 217.548,214.000 217.397 C 214.990 217.247,216.163 216.894,216.606 216.614 C 217.049 216.334,218.039 215.971,218.806 215.806 C 219.573 215.642,220.650 215.272,221.200 214.985 C 221.750 214.697,223.100 214.052,224.200 213.550 C 226.348 212.571,230.731 209.954,232.461 208.619 C 233.044 208.169,234.124 207.350,234.860 206.800 C 235.596 206.250,239.836 202.155,244.281 197.700 C 250.644 191.324,252.584 189.600,253.402 189.600 C 254.606 189.600,256.800 190.640,256.800 191.210 C 256.800 191.425,257.015 191.600,257.278 191.600 C 257.868 191.600,260.882 193.612,261.320 194.299 C 261.496 194.574,261.885 194.800,262.184 194.800 C 262.483 194.800,263.599 195.486,264.664 196.324 C 265.729 197.162,266.915 197.966,267.300 198.111 C 267.685 198.256,268.000 198.548,268.000 198.760 C 268.000 198.973,268.394 199.271,268.877 199.424 C 269.359 199.577,270.635 200.399,271.713 201.251 C 272.790 202.103,273.866 202.800,274.102 202.800 C 274.339 202.800,274.818 203.062,275.166 203.381 C 277.182 205.231,277.593 205.544,278.308 205.771 C 278.740 205.908,279.416 206.376,279.809 206.810 C 280.202 207.245,280.766 207.600,281.062 207.600 C 281.358 207.600,281.600 207.778,281.600 207.995 C 281.600 208.212,282.230 208.652,283.000 208.974 C 283.770 209.296,284.400 209.748,284.400 209.980 C 284.400 210.211,284.668 210.400,284.997 210.400 C 285.325 210.400,285.818 210.760,286.093 211.200 C 286.368 211.640,286.838 212.000,287.138 212.000 C 287.616 212.000,288.693 212.740,290.785 214.506 C 291.447 215.064,292.409 215.653,294.300 216.658 C 295.015 217.037,295.600 217.499,295.600 217.684 C 295.600 217.869,296.050 218.191,296.600 218.400 C 297.150 218.609,297.600 218.965,297.600 219.190 C 297.600 219.416,297.856 219.600,298.169 219.600 C 298.482 219.600,299.273 220.050,299.927 220.600 C 300.581 221.150,301.315 221.600,301.558 221.600 C 301.801 221.600,302.000 221.784,302.000 222.010 C 302.000 222.235,302.490 222.606,303.089 222.834 C 303.688 223.062,304.453 223.499,304.789 223.805 C 305.125 224.112,305.805 224.731,306.300 225.181 C 306.795 225.632,307.399 226.000,307.642 226.000 C 308.061 226.000,309.849 227.295,311.234 228.602 C 311.582 228.931,311.978 229.200,312.114 229.200 C 312.249 229.200,313.195 229.785,314.215 230.500 C 315.236 231.215,316.370 231.984,316.735 232.208 C 317.101 232.433,318.192 233.153,319.160 233.808 C 320.128 234.464,321.192 235.180,321.525 235.400 C 321.858 235.620,322.461 236.115,322.865 236.500 C 323.269 236.885,323.861 237.200,324.180 237.200 C 324.499 237.200,324.904 237.428,325.080 237.707 C 325.256 237.986,326.750 239.108,328.400 240.200 C 330.050 241.292,331.544 242.414,331.720 242.693 C 331.896 242.972,332.285 243.200,332.584 243.200 C 332.883 243.200,334.039 243.920,335.152 244.800 C 336.266 245.680,337.334 246.400,337.526 246.400 C 337.719 246.400,338.202 246.760,338.600 247.200 C 338.998 247.640,339.481 248.000,339.674 248.000 C 339.866 248.000,340.934 248.720,342.048 249.600 C 343.161 250.480,344.319 251.200,344.622 251.200 C 344.924 251.200,345.365 251.560,345.600 252.000 C 345.835 252.440,346.188 252.800,346.383 252.800 C 346.886 252.800,352.172 256.378,352.333 256.828 C 352.407 257.032,352.706 257.200,352.999 257.200 C 353.495 257.200,354.617 258.015,356.442 259.700 C 356.859 260.085,357.442 260.400,357.738 260.400 C 358.034 260.400,358.602 260.760,359.000 261.200 C 359.398 261.640,359.956 262.000,360.239 262.000 C 360.523 262.000,360.992 262.315,361.282 262.700 C 361.802 263.389,362.734 264.009,364.900 265.103 C 365.505 265.409,366.000 265.830,366.000 266.039 C 366.000 266.249,366.450 266.591,367.000 266.800 C 368.056 267.202,368.343 268.195,367.500 268.535 C 367.184 268.662,367.242 268.748,367.657 268.768 C 368.594 268.813,368.800 267.983,368.800 264.167 C 368.800 261.278,368.387 259.861,367.933 261.190 C 367.805 261.566,362.342 258.123,362.063 257.490 C 361.988 257.320,361.313 256.924,360.563 256.610 C 359.814 256.297,359.200 255.852,359.200 255.620 C 359.200 255.389,358.958 255.200,358.662 255.200 C 358.366 255.200,357.798 254.840,357.400 254.400 C 357.002 253.960,356.432 253.600,356.134 253.600 C 355.836 253.600,355.284 253.240,354.907 252.800 C 354.530 252.360,354.032 252.000,353.800 252.000 C 353.568 252.000,353.070 251.640,352.693 251.200 C 352.316 250.760,351.764 250.400,351.466 250.400 C 351.168 250.400,350.598 250.040,350.200 249.600 C 349.802 249.160,349.243 248.800,348.958 248.800 C 348.673 248.800,348.296 248.572,348.120 248.293 C 347.944 248.014,346.450 246.889,344.800 245.793 C 343.150 244.697,341.739 243.661,341.663 243.490 C 341.588 243.320,340.913 242.924,340.163 242.610 C 339.414 242.297,338.800 241.852,338.800 241.620 C 338.800 241.389,338.532 241.200,338.203 241.200 C 337.875 241.200,337.382 240.840,337.107 240.400 C 336.832 239.960,336.289 239.600,335.900 239.600 C 335.511 239.600,334.884 239.240,334.507 238.800 C 334.130 238.360,333.599 238.000,333.325 238.000 C 333.052 238.000,332.635 237.640,332.400 237.200 C 332.165 236.760,331.689 236.400,331.344 236.400 C 330.998 236.400,330.150 235.947,329.458 235.394 C 328.766 234.841,328.009 234.235,327.775 234.048 C 327.541 233.861,326.911 233.477,326.375 233.194 C 325.839 232.912,325.310 232.563,325.200 232.420 C 325.090 232.277,323.515 231.188,321.700 230.000 C 319.885 228.812,318.400 227.696,318.400 227.520 C 318.400 227.344,318.189 227.200,317.931 227.200 C 317.674 227.200,317.133 226.901,316.729 226.536 C 316.325 226.170,315.653 225.675,315.235 225.436 C 313.513 224.448,307.390 220.196,307.263 219.900 C 307.188 219.724,306.558 219.336,305.863 219.038 C 305.169 218.739,303.983 217.934,303.228 217.247 C 302.473 216.561,301.646 216.000,301.390 216.000 C 301.134 216.000,300.598 215.640,300.200 215.200 C 299.802 214.760,299.243 214.400,298.958 214.400 C 298.673 214.400,298.296 214.174,298.120 213.899 C 297.764 213.342,294.716 211.200,294.278 211.200 C 294.027 211.200,293.632 210.877,291.566 208.981 C 291.218 208.662,290.778 208.400,290.588 208.400 C 290.100 208.400,287.065 206.303,286.680 205.701 C 286.504 205.426,286.097 205.200,285.776 205.200 C 285.455 205.200,284.884 204.840,284.507 204.400 C 284.130 203.960,283.632 203.600,283.400 203.600 C 283.168 203.600,282.670 203.240,282.293 202.800 C 281.916 202.360,281.364 202.000,281.066 202.000 C 280.768 202.000,280.198 201.640,279.800 201.200 C 279.402 200.760,278.894 200.400,278.672 200.400 C 278.449 200.400,277.982 200.125,277.634 199.788 C 276.999 199.176,275.567 198.182,270.900 195.114 C 269.525 194.210,268.400 193.320,268.400 193.135 C 268.400 192.951,268.152 192.800,267.849 192.800 C 267.546 192.800,267.065 192.520,266.781 192.177 C 266.496 191.834,265.664 191.303,264.932 190.997 C 264.199 190.691,263.600 190.252,263.600 190.020 C 263.600 189.789,263.358 189.600,263.062 189.600 C 262.766 189.600,262.198 189.240,261.800 188.800 C 261.402 188.360,260.879 187.993,260.638 187.984 C 257.733 187.876,257.090 184.377,259.531 181.961 C 263.015 178.512,296.782 144.032,305.726 134.790 C 322.614 117.340,331.834 107.773,334.217 105.231 C 335.748 103.598,338.736 100.492,340.858 98.328 C 342.980 96.165,344.820 94.126,344.946 93.797 C 345.072 93.469,345.451 93.200,345.787 93.200 C 346.124 93.200,346.400 93.006,346.400 92.769 C 346.400 92.531,347.120 91.624,348.000 90.753 C 348.880 89.882,349.600 88.996,349.600 88.785 C 349.600 88.573,349.849 88.400,350.153 88.400 C 350.458 88.400,350.801 88.040,350.916 87.600 C 351.031 87.160,351.412 86.800,351.763 86.800 C 352.133 86.800,352.400 86.465,352.400 86.000 C 352.400 85.560,352.580 85.200,352.800 85.200 C 353.033 85.200,353.200 83.867,353.200 82.000 C 353.200 78.989,352.751 77.813,352.284 79.600 C 352.169 80.040,351.788 80.400,351.437 80.400 C 351.087 80.400,350.800 80.676,350.800 81.013 C 350.800 81.349,350.485 81.745,350.100 81.892 C 349.715 82.039,348.839 82.754,348.153 83.480 C 347.467 84.206,346.714 84.800,346.480 84.800 C 346.246 84.800,345.940 85.160,345.800 85.600 C 345.660 86.040,345.403 86.400,345.229 86.400 C 344.717 86.400,321.555 109.021,287.018 143.250 C 276.668 153.507,264.150 165.832,259.200 170.638 C 254.250 175.444,247.500 182.106,244.200 185.443 C 234.879 194.868,230.634 198.018,222.000 201.914 C 221.010 202.360,219.750 202.843,219.200 202.986 C 218.650 203.129,217.570 203.489,216.800 203.785 C 210.653 206.150,195.211 207.119,189.600 205.492 C 188.390 205.142,186.500 204.675,185.400 204.455 C 183.247 204.025,179.389 202.745,178.158 202.053 C 177.741 201.818,176.230 201.074,174.800 200.398 C 168.778 197.554,163.192 193.156,155.162 184.941 C 151.969 181.673,147.566 177.316,145.378 175.257 C 143.190 173.199,132.211 162.399,120.981 151.257 C 103.135 133.553,76.500 107.326,61.513 92.700 C 58.865 90.115,56.553 88.000,56.376 88.000 C 56.199 88.000,55.940 87.640,55.800 87.200 C 55.660 86.760,55.300 86.400,55.000 86.400 C 54.700 86.400,54.340 86.040,54.200 85.600 C 54.060 85.160,53.740 84.800,53.488 84.800 C 53.236 84.800,52.123 83.845,51.015 82.677 C 49.907 81.509,48.685 80.435,48.300 80.290 C 47.915 80.144,47.600 79.749,47.600 79.413 C 47.600 79.076,47.420 78.800,47.200 78.800 C 46.967 78.800,46.800 80.133,46.800 82.000 M100.400 315.972 C 100.400 328.531,102.067 332.591,108.780 336.374 L 110.600 337.400 200.000 337.400 L 289.400 337.400 291.371 336.294 C 292.455 335.686,294.075 334.403,294.971 333.443 C 299.078 329.045,299.594 327.102,299.597 316.000 L 299.600 307.400 200.000 307.400 L 100.400 307.400 100.400 315.972 " stroke="none" fill="#c3bcbc" fill-rule="evenodd"></path><path id="path4" d="M36.334 61.950 C 34.482 62.595,32.752 64.080,31.337 66.240 C 30.291 67.837,29.961 267.871,31.002 269.460 L 31.615 270.395 65.508 270.498 L 99.400 270.600 99.620 298.800 C 99.878 332.006,99.527 329.482,104.585 334.450 C 105.676 335.523,106.742 336.400,106.953 336.400 C 107.164 336.400,107.621 336.641,107.969 336.935 C 108.316 337.229,109.783 337.859,111.228 338.335 L 113.856 339.200 200.000 339.200 L 286.144 339.200 288.772 338.335 C 290.217 337.859,291.684 337.229,292.031 336.935 C 292.379 336.641,292.829 336.397,293.031 336.394 C 293.588 336.384,296.946 333.165,297.824 331.800 C 300.258 328.014,300.135 329.610,300.378 298.800 L 300.600 270.600 334.371 270.498 C 365.839 270.402,368.196 270.348,368.929 269.698 C 369.805 268.921,369.687 68.932,368.809 66.623 C 368.178 64.963,365.344 62.539,363.224 61.846 C 360.181 60.850,39.197 60.953,36.334 61.950 M365.134 63.754 C 366.050 64.389,366.800 65.072,366.800 65.271 C 366.800 65.470,367.156 66.120,367.592 66.716 C 368.243 67.607,368.982 248.698,368.414 268.300 C 368.403 268.696,361.330 268.800,334.424 268.800 C 307.682 268.800,300.378 268.906,300.124 269.300 C 299.946 269.575,299.702 282.400,299.582 297.800 C 299.325 330.706,299.614 328.471,294.971 333.443 C 294.075 334.403,292.455 335.686,291.371 336.294 L 289.400 337.400 200.000 337.400 L 110.600 337.400 108.780 336.374 C 105.189 334.350,102.966 331.761,101.420 327.800 C 100.681 325.905,100.628 324.326,100.420 297.800 C 100.299 282.400,100.054 269.575,99.876 269.300 C 99.622 268.906,92.318 268.800,65.576 268.800 C 38.670 268.800,31.597 268.696,31.586 268.300 C 31.578 268.025,31.583 222.710,31.597 167.600 L 31.623 67.400 32.526 66.125 C 33.741 64.410,35.405 63.148,36.937 62.782 C 37.632 62.615,111.385 62.507,200.834 62.540 L 363.468 62.600 365.134 63.754 " stroke="none" fill="#e3ca7c" fill-rule="evenodd"></path></g></svg>