<?xml version="1.0" encoding="iso-8859-1"?>
<!-- Uploaded to: SVG Repo, www.svgrepo.com, Generator: SVG Repo Mixer Tools -->
<svg version="1.1" id="Layer_1" xmlns="http://www.w3.org/2000/svg" xmlns:xlink="http://www.w3.org/1999/xlink" 
	 viewBox="0 0 511.988 511.988" xml:space="preserve">
<path style="fill:#E6E9ED;" d="M437.319,469.332H74.656c-5.891,0-10.656-4.781-10.656-10.687v-266.65
	c0-51.287,19.969-99.497,56.233-135.762C156.482,19.969,204.7,0,255.995,0c51.28,0,99.498,19.969,135.747,56.233
	c36.265,36.265,56.248,84.475,56.248,135.762v266.65C447.99,464.551,443.209,469.332,437.319,469.332z"/>
<g>
	<rect x="63.995" y="202.654" style="fill:#FFCE54;" width="63.999" height="85.33"/>
	<path style="fill:#FFCE54;" d="M255.995,0c-20.39,0-40.265,3.164-59.123,9.234l43.108,70.1l34.374-3.836l40.749-66.264
		C296.244,3.164,276.37,0,255.995,0z"/>
	<rect x="383.995" y="202.654" style="fill:#FFCE54;" width="63.998" height="85.33"/>
</g>
<path style="fill:#ED5564;" d="M127.999,490.644h255.993V191.995c0-34.187-13.328-66.334-37.499-90.505
	c-24.171-24.18-56.311-37.491-90.498-37.491c-34.202,0-66.342,13.312-90.513,37.491c-24.172,24.171-37.483,56.318-37.483,90.505
	V490.644z"/>
<g>
	<path style="fill:#F6BB42;" d="M255.995,0c-3.578,0-7.141,0.102-10.671,0.297v31.702c0,5.891,4.765,10.664,10.671,10.664
		c5.892,0,10.656-4.773,10.656-10.664V0.297C263.121,0.101,259.558,0,255.995,0z"/>
	<path style="fill:#F6BB42;" d="M255.995,469.332c-5.906,0-10.671-4.781-10.671-10.687v-21.311c0-5.906,4.765-10.688,10.671-10.688
		c5.892,0,10.656,4.781,10.656,10.688v21.312C266.651,464.551,261.887,469.332,255.995,469.332z"/>
</g>
<g>
	<path style="fill:#E6E9ED;" d="M191.997,181.332c0,5.891-4.781,10.663-10.672,10.663s-10.672-4.772-10.672-10.663
		s4.781-10.672,10.672-10.672S191.997,175.441,191.997,181.332z"/>
	<path style="fill:#E6E9ED;" d="M191.997,213.331c0,5.891-4.781,10.664-10.672,10.664s-10.672-4.773-10.672-10.664
		s4.781-10.672,10.672-10.672S191.997,207.44,191.997,213.331z"/>
</g>
<g>
	<path style="fill:#434A54;" d="M234.652,223.995h-31.999c-5.891,0-10.656-4.773-10.656-10.664s4.766-10.672,10.656-10.672h31.999
		c5.891,0,10.672,4.781,10.672,10.672S240.543,223.995,234.652,223.995z"/>
	<path style="fill:#434A54;" d="M234.652,191.995h-31.999c-5.891,0-10.656-4.772-10.656-10.663s4.766-10.672,10.656-10.672h31.999
		c5.891,0,10.672,4.781,10.672,10.672S240.543,191.995,234.652,191.995z"/>
</g>
<g>
	<path style="fill:#E6E9ED;" d="M287.994,181.332c0,5.891-4.78,10.663-10.671,10.663s-10.672-4.772-10.672-10.663
		s4.781-10.672,10.672-10.672S287.994,175.441,287.994,181.332z"/>
	<path style="fill:#E6E9ED;" d="M287.994,213.331c0,5.891-4.78,10.664-10.671,10.664s-10.672-4.773-10.672-10.664
		s4.781-10.672,10.672-10.672S287.994,207.44,287.994,213.331z"/>
</g>
<g>
	<path style="fill:#434A54;" d="M330.65,223.995h-32c-5.891,0-10.656-4.773-10.656-10.664s4.766-10.672,10.656-10.672h32
		c5.891,0,10.672,4.781,10.672,10.672S336.541,223.995,330.65,223.995z"/>
	<path style="fill:#434A54;" d="M330.65,191.995h-32c-5.891,0-10.656-4.772-10.656-10.663s4.766-10.672,10.656-10.672h32
		c5.891,0,10.672,4.781,10.672,10.672S336.541,191.995,330.65,191.995z"/>
	<path style="fill:#434A54;" d="M170.653,458.645h-21.327c-5.891,0-10.672-4.766-10.672-10.656s4.781-10.655,10.672-10.655h21.327
		c5.891,0,10.672,4.765,10.672,10.655S176.544,458.645,170.653,458.645z"/>
</g>
<path style="fill:#5D9CEC;" d="M135.248,149.333h241.479c-6.266-17.797-16.499-34.109-30.233-47.843
	c-24.172-24.18-56.312-37.491-90.499-37.491c-34.202,0-66.342,13.312-90.513,37.491
	C151.748,115.223,141.514,131.536,135.248,149.333z"/>
<path style="fill:#434A54;" d="M255.901,95.998c-29.452,0-53.326,23.874-53.326,53.335h106.653
	C309.228,119.872,285.354,95.998,255.901,95.998z"/>
<path style="fill:#F6BB42;" d="M255.995,127.997c-11.796,0-21.343,9.555-21.343,21.336h42.671
	C277.323,137.552,267.776,127.997,255.995,127.997z"/>
<polygon style="fill:#FFCE54;" points="324.307,245.33 181.325,241.83 177.325,382.209 202.653,418.99 234.652,437.334 
	277.323,437.334 309.228,415.99 330.65,373.335 "/>
<g>
	<path style="fill:#656D78;" d="M64,405.334v95.998c0,5.875,4.766,10.656,10.656,10.656h42.671c5.891,0,10.672-4.781,10.672-10.656
		v-95.998H64z"/>
	<path style="fill:#656D78;" d="M383.992,405.334v95.998c0,5.875,4.766,10.656,10.656,10.656h42.671
		c5.89,0,10.671-4.781,10.671-10.656v-95.998H383.992z"/>
</g>
<g>
	<rect x="63.995" y="277.334" style="fill:#F6BB42;" width="63.999" height="21.312"/>
	<rect x="63.995" y="234.654" style="fill:#F6BB42;" width="63.999" height="21.336"/>
	<rect x="63.995" y="191.994" style="fill:#F6BB42;" width="63.999" height="21.336"/>
	<rect x="383.995" y="277.334" style="fill:#F6BB42;" width="63.998" height="21.312"/>
	<rect x="383.995" y="234.654" style="fill:#F6BB42;" width="63.998" height="21.336"/>
	<rect x="383.995" y="191.994" style="fill:#F6BB42;" width="63.998" height="21.336"/>
	<path style="fill:#F6BB42;" d="M330.65,234.658H181.325c-5.891,0-10.672,4.781-10.672,10.672v117.317
		c0,47.062,38.28,85.342,85.342,85.342c47.046,0,85.327-38.28,85.327-85.342V245.33C341.322,239.439,336.541,234.658,330.65,234.658
		z M319.947,364.632l-11.484-11.499l11.531-11.516v21.03C319.994,363.319,319.978,363.975,319.947,364.632z M197.716,389.115
		l20.89-20.905l22.297,22.312l-23.312,23.312C209.058,407.412,202.184,398.928,197.716,389.115z M191.997,362.647v-21.03
		l11.516,11.516l-11.484,11.499C191.997,363.975,191.997,363.319,191.997,362.647z M233.683,278.368l22.312-22.312l22.297,22.312
		l-22.297,22.297L233.683,278.368z M240.902,315.742l-22.297,22.312l-22.312-22.312l22.312-22.296L240.902,315.742z
		 M286.103,255.994h14.547l-7.281,7.281L286.103,255.994z M218.605,263.275l-7.281-7.281h14.562L218.605,263.275z M203.513,278.368
		l-11.516,11.516V266.83L203.513,278.368z M233.683,353.133l22.312-22.297l22.297,22.297l-22.297,22.296L233.683,353.133z
		 M271.073,315.742l22.296-22.296l22.312,22.296l-22.312,22.312L271.073,315.742z M308.463,278.368l11.531-11.538v23.054
		L308.463,278.368z M237.621,423.959l18.374-18.344l18.359,18.344c-5.828,1.75-11.983,2.688-18.359,2.688
		C249.604,426.646,243.449,425.709,237.621,423.959z M294.385,413.834l-23.312-23.312l22.296-22.312l20.891,20.905
		C309.791,398.928,302.916,407.412,294.385,413.834z"/>
</g>
</svg>