<?xml version="1.0" encoding="utf-8"?>
<!-- Uploaded to: SVG Repo, www.svgrepo.com, Generator: SVG Repo Mixer Tools -->
<svg width="800px" height="800px" viewBox="0 0 1024 1024" class="icon"  version="1.1" xmlns="http://www.w3.org/2000/svg"><path d="M508.2 309.3c-6.6 0-12.3-4.8-13.2-11.4-1.6-12.5-15.5-123 0.7-166.6 6.5-17.5 30.5-44.6 61.5-47.3 18.4-1.6 45.3 5 69 45.2 8.7 14.8 22.4 32.1 38.2 30.3 6.9-0.8 14.5-5.2 21.4-12.5 6.6-6.9 11-14.8 12.5-19.5 6.9-22.5 2-87.8-0.5-111.1-0.8-7.1 4.6-13.5 11.9-14.3 7.3-0.7 13.9 4.4 14.6 11.6 1 9.1 9.2 89.7-0.5 121.3-5.7 18.4-27.5 47.1-56.4 50.4-1.9 0.2-3.7 0.3-5.5 0.3-27.3 0-46.9-23.2-58.8-43.5-13.4-22.7-28.1-33.6-43.6-32.3-18.9 1.6-35 20.2-38.7 30.2-11.8 32-3.5 122.3 0.7 154.5 0.9 7.1-4.2 13.6-11.5 14.5-0.7 0.1-1.2 0.2-1.8 0.2z" fill="#10457E" /><path d="M510.4 268.3c-124.8 1-226.6 100.8-226.6 222.7v285.2c0 122.5 102.8 222.8 228.4 222.8 125.6 0 228.4-100.3 228.4-222.8V528.4H510.4V268.3z" fill="#FAFBFC" /><path d="M512.3 1012c-64.3 0-125-24.6-170.8-69.3s-71-103.8-71-166.5V491c0-128.9 107.6-234.7 239.8-235.7 3.6 0 7 1.3 9.5 3.8 2.5 2.4 3.9 5.8 3.9 9.2v247.1h216.9c7.4 0 13.3 5.8 13.3 13v247.8c0 62.7-25.2 121.9-71 166.5-45.7 44.7-106.3 69.3-170.6 69.3z m-15.2-730.2c-111.4 7.7-200 98.9-200 209.2v285.2c0 55.8 22.4 108.4 63.2 148.2s94.8 61.6 152 61.6 111.2-21.9 151.9-61.6 63.2-92.4 63.2-148.2V541.4h-217c-7.4 0-13.3-5.8-13.3-13V281.8z" fill="#10457E" /><path d="M512.3 268.2c-0.6 0-1.2 0.1-1.8 0.1v260.1h230.3V491c-0.1-122.5-102.9-222.8-228.5-222.8z" fill="#9ED5E4" /><path d="M740.7 541.4H510.4c-7.4 0-13.3-5.8-13.3-13V268.3c0-7.1 5.8-12.9 13.1-13h0.2c0.4 0 1.1-0.1 1.9-0.1 64.3 0 125 24.6 170.8 69.3 45.8 44.7 71 103.8 71 166.5v37.4c-0.1 7.2-6 13-13.4 13z m-216.9-26h203.6V491c0-55.8-22.4-108.4-63.2-148.2-38-37.1-87.5-58.6-140.4-61.3v233.9z" fill="#154B8B" /><path d="M726.1 528.4H283.8" fill="#9ED5E4" /><path d="M726.1 541.4H283.8c-7.4 0-13.3-5.8-13.3-13s6-13 13.3-13h442.3c7.4 0 13.3 5.8 13.3 13s-5.9 13-13.3 13z" fill="#154B8B" /></svg>