<?xml version="1.0" encoding="iso-8859-1"?>
<!-- Uploaded to: SVG Repo, www.svgrepo.com, Generator: SVG Repo Mixer Tools -->
<svg version="1.1" id="Layer_1" xmlns="http://www.w3.org/2000/svg" xmlns:xlink="http://www.w3.org/1999/xlink" 
	 viewBox="0 0 496.2 496.2" xml:space="preserve">
<path style="fill:#32BEA6;" d="M496.2,248.1C496.2,111.1,385.1,0,248.1,0S0,111.1,0,248.1s111.1,248.1,248.1,248.1
	S496.2,385.1,496.2,248.1z"/>
<path style="fill:#EDEDEB;" d="M190.6,383.3c0,5.7-4.6,10.4-10.4,10.4h-45.8c-5.7,0-10.4-4.6-10.4-10.4V149.5
	c0-5.7,4.6-10.4,10.4-10.4h45.8c5.7,0,10.4,4.6,10.4,10.4V383.3z"/>
<path style="fill:#D7D9D6;" d="M179.3,186.1h-14.8v-14.8c0-1-0.8-1.8-1.8-1.8h-8.1c-1,0-1.8,0.8-1.8,1.8v14.8H138
	c-1,0-1.8,0.8-1.8,1.8v8.1c0,1,0.8,1.8,1.8,1.8h14.8v14.8c0,1,0.8,1.8,1.8,1.8h8.1c1,0,1.8-0.8,1.8-1.8v-14.8h14.8
	c1,0,1.8-0.8,1.8-1.8v-8.1C181.1,186.9,180.3,186.1,179.3,186.1z"/>
<polygon style="fill:#E1E3E0;" points="243.9,82.7 294.7,71.5 279.6,327 220.3,323.5 "/>
<polygon style="fill:#C4C4C4;" points="401.3,329.6 407.3,192.8 294.7,71.5 278.7,325.7 "/>
<polygon style="fill:#B8BDB9;" points="401.3,329.6 403.9,272.2 288.8,163.9 278.7,325.7 "/>
<polygon style="fill:#ADB1B0;" points="212.9,323.5 206.9,392.4 282.6,396.7 288.6,321 "/>
<polygon style="fill:#67706B;" points="408.2,375.1 282.6,396.7 288.6,321 408.2,328.7 "/>
<path style="fill:#49ADBA;" d="M272,300.2c-0.1,2.1-2.6,3.6-5.5,3.5l0,0c-2.9-0.2-5.2-2-5.1-4.1l13.2-209.5c0.1-2.1,2.6-3.6,5.5-3.5
	l0,0c2.9,0.2,5.2,2,5,4.1L272,300.2z"/>
<path style="fill:#60D0E8;" d="M266.5,303.7L266.5,303.7c-2.9-0.2-5.2-2-5.1-4.1l13.2-209.5c0.1-2.1,2.6-3.6,5.5-3.5l0,0
	c0,0-2.4,1.5-2.9,4.7s-13,202.3-12.9,205.8C264.4,300.5,266.5,303.7,266.5,303.7z"/>
<path style="fill:#BEBFBE;" d="M245.9,223.8l9.1-87.6c0.2-2-1.2-3.4-3.1-3.2l-13.1,1.2l-0.2,2.5l11.2-0.9c1.5-0.2,2.6,1,2.5,2.5
	l-8.3,83.6c-0.2,1.6-1.5,2.9-3.1,3.1l-11.1,0.9l-0.3,2.8l12.6-1.2C244,227.5,245.7,225.8,245.9,223.8z"/>
<circle style="fill:#D7D9D6;" cx="157.8" cy="231.9" r="9.5"/>
<circle style="fill:#FFFFFF;" cx="157.8" cy="231.9" r="3.9"/>
<g>
	<circle style="fill:#D7D9D6;" cx="157.8" cy="336.5" r="6.6"/>
	<circle style="fill:#D7D9D6;" cx="157.8" cy="359.6" r="6.6"/>
</g>
<path style="fill:#9E9E9E;" d="M157,362.1h2.8c0.3,0,0.5,0.1,0.6,0.2s0.2,0.3,0.2,0.5s-0.1,0.3-0.2,0.4s-0.3,0.2-0.5,0.2h-4
	c-0.3,0-0.5-0.1-0.6-0.2s-0.2-0.3-0.2-0.5c0-0.1,0-0.3,0.1-0.5s0.2-0.4,0.3-0.5c0.5-0.5,0.9-0.9,1.3-1.3c0.4-0.4,0.7-0.6,0.8-0.7
	c0.3-0.2,0.5-0.4,0.7-0.6s0.3-0.4,0.4-0.6s0.2-0.4,0.2-0.6s-0.1-0.4-0.2-0.6c-0.1-0.2-0.3-0.3-0.4-0.4s-0.4-0.2-0.6-0.2
	c-0.5,0-0.8,0.2-1.1,0.6c0,0.1-0.1,0.2-0.2,0.4c-0.1,0.2-0.2,0.4-0.3,0.6c-0.1,0.1-0.3,0.2-0.5,0.2s-0.3-0.1-0.4-0.2
	c-0.1-0.1-0.2-0.3-0.2-0.5s0.1-0.5,0.2-0.8c0.1-0.3,0.3-0.5,0.5-0.7s0.5-0.4,0.8-0.5s0.7-0.2,1.2-0.2s1,0.1,1.4,0.3
	c0.3,0.1,0.5,0.3,0.7,0.5s0.3,0.4,0.4,0.7c0.1,0.3,0.2,0.5,0.2,0.8c0,0.4-0.1,0.8-0.3,1.2c-0.2,0.4-0.4,0.6-0.7,0.9
	c-0.2,0.2-0.6,0.5-1.2,1c-0.5,0.4-0.9,0.8-1.1,1C157.2,361.9,157.1,362,157,362.1z"/>
<g>
	<circle style="fill:#3A3A38;" cx="161.6" cy="377.4" r="2.5"/>
	<circle style="fill:#3A3A38;" cx="150.8" cy="377.4" r="2.5"/>
	<circle style="fill:#3A3A38;" cx="140.3" cy="377.4" r="2.5"/>
	<circle style="fill:#3A3A38;" cx="172.1" cy="377.4" r="2.5"/>
</g>
<g>
	<circle style="fill:#D7D9D6;" cx="141.7" cy="272.8" r="5"/>
	<circle style="fill:#D7D9D6;" cx="137.5" cy="151.8" r="6.3"/>
	<circle style="fill:#D7D9D6;" cx="173.1" cy="272.8" r="5"/>
</g>
<circle style="fill:#60D0E8;" cx="157.4" cy="272.8" r="5"/>
<path style="fill:#9E9E9E;" d="M157.9,339.8v-4.9c-0.9,0.7-1.5,1-1.8,1c-0.1,0-0.3-0.1-0.4-0.2c-0.1-0.1-0.2-0.3-0.2-0.4
	c0-0.2,0.1-0.3,0.2-0.4s0.3-0.2,0.6-0.3c0.4-0.2,0.8-0.4,1-0.6c0.3-0.2,0.5-0.5,0.7-0.8s0.3-0.5,0.4-0.5c0.1-0.1,0.2-0.1,0.3-0.1
	c0.2,0,0.3,0.1,0.5,0.2c0.1,0.1,0.2,0.3,0.2,0.6v6.2c0,0.7-0.2,1.1-0.7,1.1c-0.2,0-0.4-0.1-0.5-0.2
	C157.9,340.3,157.9,340.1,157.9,339.8z"/>
<g>
	<path style="fill:#D61D3C;" d="M138.5,148.4v1.4c0.8,0.4,1.3,1.2,1.3,2.1c0,1.3-1.1,2.4-2.3,2.4c-1.3,0-2.4-1.1-2.4-2.4
		c0-0.9,0.5-1.7,1.3-2.1v-1.4c-1.5,0.5-2.6,1.8-2.6,3.5c0,2,1.6,3.7,3.7,3.7c2,0,3.7-1.6,3.7-3.7
		C141.2,150.2,140.1,148.8,138.5,148.4z"/>
	<rect x="136.7" y="147" style="fill:#D61D3C;" width="1.6" height="4.6"/>
</g>
<g>
	<path style="fill:#FFFFFF;" d="M177.3,184.2h-14.8v-14.8c0-1-0.8-1.8-1.8-1.8h-8.1c-1,0-1.8,0.8-1.8,1.8v14.8H136
		c-1,0-1.8,0.8-1.8,1.8v8.1c0,1,0.8,1.8,1.8,1.8h14.8v14.8c0,1,0.8,1.8,1.8,1.8h8.1c1,0,1.8-0.8,1.8-1.8v-14.8h14.8
		c1,0,1.8-0.8,1.8-1.8V186C179.1,185,178.3,184.2,177.3,184.2z"/>
	<path style="fill:#FFFFFF;" d="M144.4,273.5h-5.2c-0.4,0-0.7-0.3-0.7-0.7c0-0.4,0.3-0.7,0.7-0.7h5.2c0.4,0,0.7,0.3,0.7,0.7
		S144.8,273.5,144.4,273.5z"/>
	<path style="fill:#FFFFFF;" d="M175.8,273.5h-5.2c-0.4,0-0.7-0.3-0.7-0.7c0-0.4,0.3-0.7,0.7-0.7h5.2c0.4,0,0.7,0.3,0.7,0.7
		C176.4,273.2,176.1,273.5,175.8,273.5z"/>
	<path style="fill:#FFFFFF;" d="M172.5,275.5v-5.2c0-0.4,0.3-0.7,0.7-0.7s0.7,0.3,0.7,0.7v5.2c0,0.4-0.3,0.7-0.7,0.7
		C172.8,276.1,172.5,275.8,172.5,275.5z"/>
</g>
<g>
	<circle style="fill:#525453;" cx="151.1" cy="291" r="0.6"/>
	<circle style="fill:#525453;" cx="155.1" cy="291" r="0.6"/>
	<circle style="fill:#525453;" cx="159.3" cy="291" r="0.6"/>
	<circle style="fill:#525453;" cx="163.4" cy="291" r="0.6"/>
	<circle style="fill:#525453;" cx="151.1" cy="296.3" r="0.9"/>
	<circle style="fill:#525453;" cx="155.1" cy="296.3" r="0.9"/>
	<circle style="fill:#525453;" cx="159.3" cy="296.3" r="0.9"/>
	<circle style="fill:#525453;" cx="163.4" cy="296.3" r="0.9"/>
	<circle style="fill:#525453;" cx="151.1" cy="301.7" r="1.3"/>
	<circle style="fill:#525453;" cx="155.1" cy="301.7" r="1.3"/>
	<circle style="fill:#525453;" cx="159.3" cy="301.7" r="1.3"/>
	<circle style="fill:#525453;" cx="163.4" cy="301.7" r="1.3"/>
	<circle style="fill:#525453;" cx="151.1" cy="318" r="0.6"/>
	<circle style="fill:#525453;" cx="155.1" cy="318" r="0.6"/>
	<circle style="fill:#525453;" cx="159.3" cy="318" r="0.6"/>
	<circle style="fill:#525453;" cx="163.4" cy="318" r="0.6"/>
	<circle style="fill:#525453;" cx="151.1" cy="312.7" r="0.9"/>
	<circle style="fill:#525453;" cx="155.1" cy="312.7" r="0.9"/>
	<circle style="fill:#525453;" cx="159.3" cy="312.7" r="0.9"/>
	<circle style="fill:#525453;" cx="163.4" cy="312.7" r="0.9"/>
	<circle style="fill:#525453;" cx="151.1" cy="307.3" r="1.3"/>
	<circle style="fill:#525453;" cx="155.1" cy="307.3" r="1.3"/>
	<circle style="fill:#525453;" cx="159.3" cy="307.3" r="1.3"/>
	<circle style="fill:#525453;" cx="163.4" cy="307.3" r="1.3"/>
</g>
</svg>