<?xml version="1.0" encoding="iso-8859-1"?>
<!-- Uploaded to: SVG Repo, www.svgrepo.com, Generator: SVG Repo Mixer Tools -->
<svg version="1.1" id="Layer_1" xmlns="http://www.w3.org/2000/svg" xmlns:xlink="http://www.w3.org/1999/xlink" 
	 viewBox="0 0 496.2 496.2" xml:space="preserve">
<path style="fill:#EA4949;" d="M496.2,248.1C496.2,111.1,385.1,0,248.1,0S0,111.1,0,248.1s111.1,248.1,248.1,248.1
	S496.2,385.1,496.2,248.1z"/>
<path style="fill:#151515;" d="M412.4,320.5h25c4.3,0,6.1-1.3,7.4-3.3c10.5-16,20.6-40,20.6-68.3c0-53.1-36.1-92.1-41.1-92.1H71.8
	c-5,0-41.1,39.1-41.1,92.1c0,53.1,36.1,90.6,41.1,90.6c0,0,309.3,0,313.1,0c3.2,0,4.9-0.9,6-2.3c1.5-1.9,5.8-7.7,5.8-7.7
	C400.4,324.5,407.5,320.5,412.4,320.5z M75.3,336c-1.3,0-5.7-3.9-10.6-10.7c0.4-0.8,1.3-1.3,2.7-1.3h15.8c3.1,0,7.6,2.6,10,5.7
	l4.7,6.3H75.3z"/>
<path d="M113.2,197.7c0,1.7-1.3,3-3,3h-7c-1.7,0-3-1.3-3-3l0,0c0-1.7,1.3-3,3-3h7C111.9,194.7,113.2,196.1,113.2,197.7L113.2,197.7z
	"/>
<circle cx="78.6" cy="236.6" r="33.1"/>
<path style="fill:#1B1C1E;" d="M94,246c-2.9,0-10.1-7.7-10.1-9.6c0-1.9,7.1-9.6,10.1-9.6h11.1c2.9,0,5.3,2.4,5.3,5.3v8.6
	c0,2.9-2.4,5.3-5.3,5.3H94z"/>
<path style="fill:#3B3C3D;" d="M83.9,236.4c0,1.2,2.8,4.7,5.7,7.1v-14.2C86.8,231.7,83.9,235.2,83.9,236.4z"/>
<path style="fill:#DBDBDB;" d="M99.1,242.9c-0.2,0-0.4,0-0.5-0.1c-0.5-0.2-0.8-0.7-0.8-1.2v-10.1c0-0.5,0.3-1,0.8-1.2s1-0.1,1.4,0.2
	l5.6,5.1c0.3,0.2,0.4,0.6,0.4,1s-0.2,0.7-0.4,0.9l-5.6,5.1C99.7,242.8,99.4,242.9,99.1,242.9z M99.3,232v9.1l5.1-4.6L99.3,232z"/>
<path style="fill:#1B1C1E;" d="M62.3,226.8c2.9,0,10.1,7.7,10.1,9.6c0,1.9-7.1,9.6-10.1,9.6H51.2c-2.9,0-5.3-2.4-5.3-5.3v-8.6
	c0-2.9,2.4-5.3,5.3-5.3H62.3z"/>
<path style="fill:#3B3C3D;" d="M72.3,236.4c0-1.2-2.8-4.7-5.7-7.1v14.2C69.5,241.1,72.3,237.5,72.3,236.4z"/>
<path style="fill:#DBDBDB;" d="M57.5,242.9c-0.3,0-0.6-0.1-0.9-0.3l-5.6-5.1c-0.3-0.2-0.4-0.6-0.4-1s0.2-0.7,0.4-1l5.6-5.1
	c0.4-0.3,1-0.4,1.4-0.2c0.5,0.2,0.8,0.7,0.8,1.2v10.1c0,0.5-0.3,1-0.8,1.2C57.8,242.9,57.7,242.9,57.5,242.9z M52.2,236.6l5.1,4.6
	v-9.1L52.2,236.6z"/>
<path style="fill:#1B1C1E;" d="M88.2,220.8c0,2.9-7.7,10.1-9.6,10.1s-9.6-7.1-9.6-10.1v-11.1c0-2.9,2.4-5.3,5.3-5.3h8.6
	c2.9,0,5.3,2.4,5.3,5.3C88.2,209.7,88.2,220.8,88.2,220.8z"/>
<path style="fill:#3B3C3D;" d="M78.6,230.9c1.2,0,4.7-2.8,7.1-5.7H71.4C73.9,228,77.4,230.9,78.6,230.9z"/>
<path style="fill:#DBDBDB;" d="M83.7,217.4H73.6c-0.5,0-1-0.3-1.2-0.8s-0.1-1,0.2-1.4l5.1-5.6c0.5-0.5,1.4-0.5,1.9,0l5.1,5.6
	c0.2,0.2,0.3,0.5,0.3,0.9c0,0.2,0,0.3-0.1,0.5C84.7,217.1,84.3,217.4,83.7,217.4z M74.1,215.9h9.1l-4.6-5.1L74.1,215.9z"/>
<path style="fill:#1B1C1E;" d="M69,252.6c0-2.9,7.7-10.1,9.6-10.1s9.6,7.1,9.6,10.1v11.1c0,2.9-2.4,5.3-5.3,5.3h-8.6
	c-2.9,0-5.3-2.4-5.3-5.3C69,263.7,69,252.6,69,252.6z"/>
<path style="fill:#3B3C3D;" d="M78.6,242.5c-1.2,0-4.7,2.8-7.1,5.7h14.2C83.2,245.3,79.7,242.5,78.6,242.5z"/>
<path style="fill:#DBDBDB;" d="M78.7,264.6c-0.4,0-0.7-0.2-1-0.4l-5.1-5.6c-0.2-0.2-0.3-0.5-0.3-0.9c0-0.2,0-0.4,0.1-0.5
	c0.2-0.5,0.7-0.8,1.2-0.8h10.1c0.5,0,1,0.3,1.2,0.8s0.1,1-0.2,1.4l-5.1,5.6C79.4,264.4,79,264.6,78.7,264.6z M74.1,257.9l4.6,5.1
	l4.6-5.1H74.1z"/>
<path style="fill:#373737;" d="M452.8,236.7c0-18-14.6-32.5-32.5-32.5c-18,0-32.5,14.6-32.5,32.5c0,18,14.6,32.5,32.5,32.5
	C438.2,269.3,452.8,254.7,452.8,236.7z"/>
<path style="fill:#151515;" d="M450.9,236.7c0-16.9-13.7-30.7-30.7-30.7s-30.7,13.7-30.7,30.7c0,16.9,13.7,30.7,30.7,30.7
	S450.9,253.7,450.9,236.7z"/>
<g>
	<circle style="fill:#25292C;" cx="420.2" cy="209.6" r="11.4"/>
	<circle style="fill:#25292C;" cx="420.2" cy="262.5" r="11.4"/>
	<circle style="fill:#25292C;" cx="446.7" cy="236.1" r="11.4"/>
	<circle style="fill:#25292C;" cx="393.7" cy="236.1" r="11.4"/>
</g>
<g>
	<path style="fill:#DBDBDB;" d="M424.4,212.4h-8.1c-0.3,0-0.5-0.1-0.6-0.4c-0.1-0.2-0.1-0.5,0-0.7l4-6.7c0.1-0.2,0.4-0.3,0.6-0.3
		s0.5,0.1,0.6,0.3l4.1,6.7c0.1,0.2,0.1,0.5,0,0.7C424.8,212.3,424.6,212.4,424.4,212.4z M417.5,211h5.6l-2.8-4.7L417.5,211z"/>
	<path style="fill:#DBDBDB;" d="M446.9,241.3c-2.8,0-5.1-2.3-5.1-5.1s2.3-5.1,5.1-5.1c2.8,0,5.1,2.3,5.1,5.1
		C451.9,239,449.7,241.3,446.9,241.3z M446.9,232.6c-2,0-3.7,1.6-3.7,3.7c0,2,1.6,3.7,3.7,3.7s3.7-1.6,3.7-3.7
		C450.5,234.2,448.9,232.6,446.9,232.6z"/>
	<path style="fill:#DBDBDB;stroke:#DBDBDB;stroke-width:0.937;stroke-miterlimit:10;" d="M420.7,262.5l2.9-2.8
		c0.1-0.1,0.1-0.3,0-0.5c-0.1-0.1-0.3-0.1-0.5,0l-3,2.8l-3-2.8c-0.1-0.1-0.4-0.1-0.5,0s-0.1,0.4,0,0.5l2.9,2.8l-2.9,2.8
		c-0.1,0.1-0.1,0.3,0,0.5c0.1,0.1,0.2,0.1,0.2,0.1c0.1,0,0.2,0,0.2-0.1l3-2.8l3,2.8c0.1,0.1,0.2,0.1,0.2,0.1c0.1,0,0.2,0,0.2-0.1
		c0.1-0.1,0.1-0.4,0-0.5L420.7,262.5z"/>
	<path style="fill:#DBDBDB;" d="M397.3,239.8h-6.5c-0.4,0-0.7-0.3-0.7-0.7v-6.3c0-0.4,0.3-0.7,0.7-0.7h6.5c0.4,0,0.7,0.3,0.7,0.7
		v6.3C398,239.4,397.6,239.8,397.3,239.8z M391.4,238.3h5.1v-4.9h-5.1V238.3z"/>
</g>
<g>
	<path style="fill:#FFFFFF;" d="M84.3,172.2c5,0,12-4,15.8-9l2.4-3.2c0,0,2.8-3.3,5.8-3.3s-36.4,0-36.4,0c-1.9,0-8.1,5.5-15.1,15.1
		c0.7,0.3,1.5,0.5,2.5,0.5h25V172.2z"/>
	<path style="fill:#FFFFFF;" d="M411.9,172.2c-5,0-12-4-15.8-9l-2.4-3.2c0,0-2.8-3.3-5.8-3.3s36.4,0,36.4,0c1.9,0,8.1,5.5,15.1,15.1
		c-0.7,0.3-1.5,0.5-2.5,0.5h-25V172.2z"/>
</g>
<path style="fill:#DFE5E2;" d="M100.1,329.4c-3.7-5-10.8-9-15.8-9h-25c-2.2,0-3.6,0.8-4.2,2.1c7.7,10.8,14.8,16.9,16.8,16.9h35.7
	L100.1,329.4z M75.3,336c-1.3,0-5.7-3.9-10.6-10.7c0.4-0.8,1.3-1.3,2.7-1.3h15.8c3.1,0,7.6,2.6,10,5.7l4.7,6.3H75.3z"/>
<rect x="123" y="169.7" style="fill:#01B4DC;" width="250.9" height="141.7"/>
<path style="fill:#0098C7;" d="M373.9,311.4H123v-35.1c0,0,41.8-24.5,132.7-18s118.2,12,118.2,12V311.4z"/>
<path style="fill:#016AA1;" d="M123,222.8v-53.1h250.9v44.8c0,0-26.5-16.5-115.2,3.8S123,222.8,123,222.8z"/>
<circle style="fill:#565656;" cx="79.9" cy="294.9" r="15.8"/>
<g>
	<ellipse style="fill:#25292C;" cx="158.2" cy="326.1" rx="7.7" ry="5.3"/>
	<ellipse style="fill:#25292C;" cx="187.7" cy="326.1" rx="7.7" ry="5.3"/>
	<ellipse style="fill:#25292C;" cx="297" cy="326.1" rx="7.7" ry="5.3"/>
	<ellipse style="fill:#25292C;" cx="316.5" cy="326.1" rx="7.7" ry="5.3"/>
	<path style="fill:#25292C;" d="M139,322.3c0,4.2-5.6,9.4-12.5,9.4c-6.9,0-12.5-5.2-12.5-9.4H139z"/>
	<path style="fill:#25292C;" d="M355.3,322.3c0,4.2-5.6,9.4-12.5,9.4s-12.5-5.2-12.5-9.4H355.3z"/>
	<path style="fill:#25292C;" d="M384.6,322.3c0,4.2-5.6,9.4-12.5,9.4s-12.5-5.2-12.5-9.4H384.6z"/>
</g>
<g>
	<rect x="218.4" y="320.1" style="fill:#BFBFBF;" width="52.1" height="2.3"/>
	<rect x="218.4" y="327.6" style="fill:#BFBFBF;" width="52.1" height="2.3"/>
</g>
</svg>