<?xml version="1.0" encoding="iso-8859-1"?>
<!-- Uploaded to: SVG Repo, www.svgrepo.com, Generator: SVG Repo Mixer Tools -->
<svg version="1.1" id="Layer_1" xmlns="http://www.w3.org/2000/svg" xmlns:xlink="http://www.w3.org/1999/xlink" 
	 viewBox="0 0 512 512" xml:space="preserve">
<rect y="88.644" style="fill:#CCCCCC;" width="512" height="368.08"/>
<rect x="16" y="104.692" style="fill:#F2F2F2;" width="480" height="336"/>
<path d="M512,88.644v-25.44c0-15.816-12.936-28.752-28.752-28.752h-368.24H28.752C12.936,34.452,0,47.388,0,63.204v25.432h512
	V88.644z"/>
<g style="opacity:0.25;">
	<path style="fill:#FFFFFF;" d="M147.032,34.452h-32.024H28.752C12.936,34.452,0,47.388,0,63.204v25.432h115.888L147.032,34.452z"/>
</g>
<circle style="fill:#D80E47;" cx="40.536" cy="61.548" r="8.184"/>
<circle style="fill:#05C3D6;" cx="65.096" cy="61.548" r="8.184"/>
<g>
	<circle style="fill:#FFFFFF;" cx="89.648" cy="61.548" r="8.184"/>
	<path style="fill:#FFFFFF;" d="M428.256,75.924H170.88c-7.904,0-14.376-6.472-14.376-14.376l0,0
		c0-7.904,6.472-14.376,14.376-14.376h257.376c7.904,0,14.376,6.472,14.376,14.376l0,0C442.632,69.452,436.16,75.924,428.256,75.924
		z"/>
</g>
<path d="M180.576,54.988l1.968,7.56c0.432,1.672,0.832,3.2,1.112,4.752h0.096c0.336-1.512,0.832-3.112,1.32-4.72l2.432-7.592h2.28
	l2.304,7.456c0.552,1.784,0.984,3.344,1.32,4.856h0.096c0.24-1.512,0.648-3.08,1.144-4.832l2.12-7.488h2.68l-4.8,14.888h-2.464
	l-2.288-7.096c-0.52-1.656-0.952-3.144-1.32-4.888h-0.064c-0.368,1.784-0.832,3.328-1.352,4.92l-2.4,7.08h-2.464L177.8,54.996h2.776
	V54.988z"/>
<path d="M203.544,54.988l1.968,7.56c0.432,1.672,0.832,3.2,1.112,4.752h0.096c0.336-1.512,0.832-3.112,1.32-4.72l2.432-7.592h2.28
	l2.304,7.456c0.552,1.784,0.984,3.344,1.32,4.856h0.096c0.24-1.512,0.648-3.08,1.144-4.832l2.12-7.488h2.68l-4.8,14.888h-2.464
	l-2.288-7.096c-0.52-1.656-0.952-3.144-1.32-4.888h-0.064c-0.368,1.784-0.832,3.328-1.352,4.92l-2.4,7.08h-2.464l-4.496-14.888
	h2.776V54.988z"/>
<path d="M226.512,54.988l1.968,7.56c0.432,1.672,0.832,3.2,1.112,4.752h0.096c0.336-1.512,0.832-3.112,1.32-4.72l2.432-7.592h2.28
	l2.304,7.456c0.552,1.784,0.984,3.344,1.32,4.856h0.096c0.24-1.512,0.648-3.08,1.144-4.832l2.12-7.488h2.68l-4.8,14.888h-2.464
	l-2.288-7.096c-0.52-1.656-0.952-3.144-1.32-4.888h-0.064c-0.368,1.784-0.832,3.328-1.352,4.92l-2.4,7.08h-2.456l-4.496-14.888
	h2.768V54.988z"/>
<path d="M246.192,68.284c0-1.144,0.768-1.936,1.84-1.936s1.816,0.8,1.816,1.936c0,1.112-0.704,1.936-1.84,1.936
	C246.928,70.22,246.192,69.396,246.192,68.284z"/>
<g>
	<rect x="461.328" y="59.916" style="fill:#FFFFFF;" width="23" height="4"/>
	<polygon style="fill:#FFFFFF;" points="474.592,73.844 471.752,71.02 480.856,61.916 471.752,52.812 474.592,49.988 
		486.512,61.916 	"/>
</g>
<polygon style="fill:#C9C9C9;" points="429.824,56.9 422.168,66.804 414.512,56.9 "/>
<path style="fill:#FFFFFF;" d="M492,108.692v328H20v-328L492,108.692 M496,104.692H16v336h480V104.692L496,104.692z"/>
<g>
	<polygon style="fill:#05C3D6;" points="393.688,477.548 361.448,445.308 405.472,401.284 438.424,434.228 	"/>
	
		<rect x="333.963" y="370.775" transform="matrix(-0.7071 0.7071 -0.7071 -0.7071 865.2658 414.7532)" style="fill:#05C3D6;" width="25.544" height="31.608"/>
</g>
<rect x="339.579" y="392.429" transform="matrix(-0.7071 0.7071 -0.7071 -0.7071 923.1016 438.6169)" width="62.263" height="36.12"/>
<circle cx="252.552" cy="273.228" r="137.28"/>
<circle style="fill:#FFFFFF;" cx="252.552" cy="273.228" r="122.904"/>
<g>
	<path style="fill:#D80E47;" d="M242.84,297.956l7.288-21.488c1.592-4.864,2.976-9.52,4.112-14.952h0.184
		c1.112,5.336,2.432,9.816,4.024,14.856l6.904,21.584h7.472l14.568-45.208h-8.136l-6.432,22.696
		c-1.496,5.32-2.704,10.088-3.456,14.672h-0.272c-1.024-4.584-2.336-9.336-4.024-14.768l-7.016-22.584h-6.904l-7.384,23.08
		c-1.496,4.84-2.976,9.704-4.024,14.288h-0.272c-0.84-4.68-2.064-9.336-3.36-14.384l-5.976-22.968h-8.408l13.632,45.208h7.472
		v-0.032H242.84z"/>
	<path style="fill:#D80E47;" d="M312.704,297.956l7.288-21.488c1.592-4.864,2.976-9.52,4.112-14.952h0.184
		c1.112,5.336,2.432,9.816,4.024,14.856l6.904,21.584h7.472l14.568-45.208h-8.136l-6.432,22.696
		c-1.496,5.32-2.704,10.088-3.456,14.672h-0.272c-1.024-4.584-2.336-9.336-4.024-14.768l-7-22.608h-6.896l-7.384,23.08
		c-1.496,4.84-2.976,9.704-4.024,14.288h-0.272c-0.84-4.68-2.064-9.336-3.36-14.384l-5.976-22.968h-8.408l13.632,45.208h7.456
		L312.704,297.956L312.704,297.956z"/>
	<path style="fill:#D80E47;" d="M173,297.956l7.288-21.488c1.592-4.864,2.976-9.52,4.112-14.952h0.184
		c1.112,5.336,2.432,9.816,4.024,14.856l6.904,21.584h7.472l14.568-45.208h-8.136l-6.432,22.696
		c-1.496,5.32-2.704,10.088-3.456,14.672h-0.272c-1.024-4.584-2.336-9.336-4.024-14.768l-7-22.608h-6.928l-7.384,23.08
		c-1.496,4.84-2.976,9.704-4.024,14.288h-0.272c-0.84-4.68-2.064-9.336-3.36-14.384l-5.976-22.968h-8.408l13.632,45.208h7.472
		v-0.008H173z"/>
</g>
</svg>