<?xml version="1.0" encoding="UTF-8" standalone="no"?>
<svg
   width="800"
   height="800"
   viewBox="0 0 1024 1024"
   version="1.1"
   id="svg474"
   sodipodi:docname="discord.svg"
   inkscape:version="1.2.2 (b0a8486541, 2022-12-01)"
   xmlns:inkscape="http://www.inkscape.org/namespaces/inkscape"
   xmlns:sodipodi="http://sodipodi.sourceforge.net/DTD/sodipodi-0.dtd"
   xmlns="http://www.w3.org/2000/svg"
   xmlns:svg="http://www.w3.org/2000/svg">
  <defs
     id="defs478" />
  <sodipodi:namedview
     id="namedview476"
     pagecolor="#ffffff"
     bordercolor="#000000"
     borderopacity="0.25"
     inkscape:showpageshadow="2"
     inkscape:pageopacity="0.0"
     inkscape:pagecheckerboard="0"
     inkscape:deskcolor="#d1d1d1"
     showgrid="false"
     inkscape:zoom="0.417193"
     inkscape:cx="-124.64255"
     inkscape:cy="592.05212"
     inkscape:window-width="1536"
     inkscape:window-height="900"
     inkscape:window-x="0"
     inkscape:window-y="36"
     inkscape:window-maximized="1"
     inkscape:current-layer="svg474" />
  <g
     fill="#5865f2"
     id="g472"
     transform="matrix(27.52445,0,0,27.427417,91.958378,66.818925)">
    <path
       d="M 26.0015,6.9529 C 24.0021,6.03845 21.8787,5.37198 19.6623,5 c -0.279,0.48048 -0.589,1.13144 -0.806,1.64292 -2.3574,-0.34099 -4.6978,-0.34099 -7.0227,0 C 11.6166,6.13144 11.2911,5.48048 11.0276,5 8.79575,5.37198 6.67235,6.03845 4.6869,6.9529 0.672601,12.8736 -0.41235,18.6548 0.130124,24.3585 2.79599,26.2959 5.36889,27.4739 7.89682,28.2489 8.51679,27.4119 9.07477,26.5129 9.55525,25.5675 8.64079,25.2265 7.77283,24.808 6.93587,24.312 c 0.21699,-0.1549 0.43399,-0.3254 0.63548,-0.4959 5.05275,2.3094 10.52555,2.3094 15.51625,0 0.217,0.1705 0.4185,0.341 0.6355,0.4959 -0.837,0.496 -1.7049,0.9145 -2.6194,1.2555 0.4805,0.9454 1.0385,1.8444 1.6584,2.6814 2.5264,-0.775 5.1148,-1.953 7.7667,-3.8904 C 31.1952,17.7559 29.4733,12.0212 26.0015,6.9529 Z M 10.2527,20.8402 c -1.51894,0 -2.75888,-1.3794 -2.75888,-3.0688 0,-1.6894 1.20894,-3.0689 2.75888,-3.0689 1.5344,0 2.7898,1.3795 2.7588,3.0689 0,1.6894 -1.2244,3.0688 -2.7588,3.0688 z m 10.1846,0 c -1.519,0 -2.7605,-1.3794 -2.7605,-3.0688 0,-1.6894 1.2105,-3.0689 2.7605,-3.0689 1.5344,0 2.7898,1.3795 2.7588,3.0689 0,1.6894 -1.2089,3.0688 -2.7588,3.0688 z"
       id="path470" />
  </g>
  <path
     style="fill:#ffffff;stroke-width:2.39697"
     d="m 278.81713,495.22164 c -30.71707,-8.2578 -49.98496,-42.55453 -42.88165,-76.32911 12.27856,-58.38167 84.68376,-67.57939 108.87985,-13.83114 6.16056,13.68482 6.55755,40.25966 0.80028,53.57094 -12.55479,29.02769 -39.67263,43.88166 -66.79848,36.58931 z"
     id="path776"
     transform="scale(1.28)" />
  <path
     style="fill:#ffffff;stroke-width:2.39697"
     d="m 500.96718,496.38042 c -28.25646,-7.08156 -46.60989,-32.14554 -46.6649,-63.72695 -0.0818,-46.98464 42.43774,-77.34413 80.90144,-57.76459 19.77498,10.06624 31.25671,27.7067 33.39708,51.31105 3.83159,42.25547 -31.74737,79.17422 -67.63362,70.18049 z"
     id="path778"
     transform="scale(1.28)" />
</svg>
