<?xml version="1.0" encoding="UTF-8" standalone="no"?>
<!-- Uploaded to: SVG Repo, www.svgrepo.com, Generator: SVG Repo Mixer Tools -->

<svg
   fill="#000000"
   width="800px"
   height="800px"
   viewBox="0 0 512 512"
   version="1.1"
   id="svg936"
   sodipodi:docname="donate-svgrepo-com.svg"
   inkscape:version="1.2.2 (b0a8486541, 2022-12-01)"
   xmlns:inkscape="http://www.inkscape.org/namespaces/inkscape"
   xmlns:sodipodi="http://sodipodi.sourceforge.net/DTD/sodipodi-0.dtd"
   xmlns="http://www.w3.org/2000/svg"
   xmlns:svg="http://www.w3.org/2000/svg">
  <defs
     id="defs940" />
  <sodipodi:namedview
     id="namedview938"
     pagecolor="#ffffff"
     bordercolor="#000000"
     borderopacity="0.25"
     inkscape:showpageshadow="2"
     inkscape:pageopacity="0.0"
     inkscape:pagecheckerboard="0"
     inkscape:deskcolor="#d1d1d1"
     showgrid="false"
     inkscape:zoom="0.295"
     inkscape:cx="403.38983"
     inkscape:cy="400"
     inkscape:window-width="1536"
     inkscape:window-height="900"
     inkscape:window-x="0"
     inkscape:window-y="36"
     inkscape:window-maximized="1"
     inkscape:current-layer="svg936" />
  <path
     d="M256 416c114.9 0 208-93.1 208-208S370.9 0 256 0 48 93.1 48 208s93.1 208 208 208zM233.8 97.4V80.6c0-9.2 7.4-16.6 16.6-16.6h11.1c9.2 0 16.6 7.4 16.6 16.6v17c15.5.8 30.5 6.1 43 15.4 5.6 4.1 6.2 12.3 1.2 17.1L306 145.6c-3.8 3.7-9.5 3.8-14 1-5.4-3.4-11.4-5.1-17.8-5.1h-38.9c-9 0-16.3 8.2-16.3 18.3 0 8.2 5 15.5 12.1 17.6l62.3 18.7c25.7 7.7 43.7 32.4 43.7 60.1 0 34-26.4 61.5-59.1 62.4v16.8c0 9.2-7.4 16.6-16.6 16.6h-11.1c-9.2 0-16.6-7.4-16.6-16.6v-17c-15.5-.8-30.5-6.1-43-15.4-5.6-4.1-6.2-12.3-1.2-17.1l16.3-15.5c3.8-3.7 9.5-3.8 14-1 5.4 3.4 11.4 5.1 17.8 5.1h38.9c9 0 16.3-8.2 16.3-18.3 0-8.2-5-15.5-12.1-17.6l-62.3-18.7c-25.7-7.7-43.7-32.4-43.7-60.1.1-34 26.4-61.5 59.1-62.4zM480 352h-32.5c-19.6 26-44.6 47.7-73 64h63.8c5.3 0 9.6 3.6 9.6 8v16c0 4.4-4.3 8-9.6 8H73.6c-5.3 0-9.6-3.6-9.6-8v-16c0-4.4 4.3-8 9.6-8h63.8c-28.4-16.3-53.3-38-73-64H32c-17.7 0-32 14.3-32 32v96c0 17.7 14.3 32 32 32h448c17.7 0 32-14.3 32-32v-96c0-17.7-14.3-32-32-32z"
     id="path934"
     style="fill:#f9f9f9" />
  <path
     style="fill:#008000;stroke-width:3.38983"
     d="m 376.72834,542.12685 c -7.78227,-6.12153 -8.93173,-9.51173 -8.93173,-26.34305 v -19.31736 l -20.77735,-3.94858 c -26.6154,-5.05806 -51.73241,-20.11888 -53.11693,-31.85033 -0.77855,-6.59692 2.91345,-12.25546 15.95647,-24.45567 18.70862,-17.49972 21.10915,-18.16767 38.77088,-10.78813 12.42406,5.1911 83.71354,7.41991 95.28625,2.97905 7.04324,-2.70275 15.4061,-18.84662 15.4061,-29.74033 0,-17.94866 -11.76249,-25.11576 -70.10475,-42.71609 -64.79852,-19.54801 -70.11052,-22.05128 -88.01757,-41.47813 -19.65254,-21.3205 -26.20229,-40.7163 -24.21362,-71.70396 3.0452,-47.45076 30.76105,-77.50254 81.48849,-88.35647 8.77454,-1.87745 9.32203,-3.07134 9.32203,-20.32804 0,-15.7684 1.24965,-19.31643 8.93173,-25.35915 11.91847,-9.375075 34.54401,-9.438667 46.37761,-0.13035 7.27346,5.7213 8.93852,10.15111 9.77918,26.01697 l 1.01318,19.12162 18.64406,3.83622 c 20.15188,4.14647 43.56844,15.02018 50.60531,23.49909 7.0221,8.46111 1.71605,19.54046 -17.05487,35.61158 -17.01337,14.56636 -17.78986,14.85139 -28.06632,10.30238 -6.7617,-2.99315 -27.22104,-5.09431 -56.79604,-5.83291 l -46.22717,-1.15446 -7.16266,9.10584 c -9.46699,12.03533 -9.26864,29.1719 0.46446,40.12705 5.82636,6.55789 21.09966,12.63795 64.68988,25.75201 31.38452,9.44199 62.91334,21.03898 70.06405,25.7711 25.07783,16.59572 40.6698,47.38028 40.6698,80.29786 0,47.37759 -39.56425,92.43315 -82.20339,93.61275 -9.0178,0.24949 -9.32203,0.87139 -9.32203,19.05603 0,15.43878 -1.48695,20.28512 -8.32049,27.11864 -10.9113,10.91133 -34.11904,11.54858 -47.15456,1.29482 z"
     id="path1011"
     transform="scale(0.64)" />
</svg>
