<?xml version="1.0" encoding="UTF-8" standalone="no"?>
<!-- Uploaded to: SVG Repo, www.svgrepo.com, Transformed by: SVG Repo Mixer Tools -->

<svg
   fill="#000000"
   width="800px"
   height="800px"
   viewBox="0 0 24 24"
   role="img"
   version="1.1"
   id="svg849"
   sodipodi:docname="kofi-svgrepo-com.svg"
   inkscape:version="1.2.2 (b0a8486541, 2022-12-01)"
   xmlns:inkscape="http://www.inkscape.org/namespaces/inkscape"
   xmlns:sodipodi="http://sodipodi.sourceforge.net/DTD/sodipodi-0.dtd"
   xmlns="http://www.w3.org/2000/svg"
   xmlns:svg="http://www.w3.org/2000/svg">
  <defs
     id="defs853" />
  <sodipodi:namedview
     id="namedview851"
     pagecolor="#ffffff"
     bordercolor="#000000"
     borderopacity="0.25"
     inkscape:showpageshadow="2"
     inkscape:pageopacity="0.0"
     inkscape:pagecheckerboard="0"
     inkscape:deskcolor="#d1d1d1"
     showgrid="false"
     inkscape:zoom="0.295"
     inkscape:cx="400"
     inkscape:cy="400"
     inkscape:window-width="1536"
     inkscape:window-height="900"
     inkscape:window-x="0"
     inkscape:window-y="36"
     inkscape:window-maximized="1"
     inkscape:current-layer="svg849" />
  <g
     id="SVGRepo_bgCarrier"
     stroke-width="0" />
  <g
     id="SVGRepo_tracerCarrier"
     stroke-linecap="round"
     stroke-linejoin="round" />
  <g
     id="SVGRepo_iconCarrier"
     style="fill:#ffffff">
    <path
       d="M23.881 8.948c-.773-4.085-4.859-4.593-4.859-4.593H.723c-.604 0-.679.798-.679.798s-.082 7.324-.022 11.822c.164 2.424 2.586 2.672 2.586 2.672s8.267-.023 11.966-.049c2.438-.426 2.683-2.566 2.658-3.734 4.352.24 7.422-2.831 6.649-6.916zm-11.062 3.511c-1.246 1.453-4.011 3.976-4.011 3.976s-.121.119-.31.023c-.076-.057-.108-.09-.108-.09-.443-.441-3.368-3.049-4.034-3.954-.709-.965-1.041-2.7-.091-3.71.951-1.01 3.005-1.086 4.363.407 0 0 1.565-1.782 3.468-.963 1.904.82 1.832 3.011.723 4.311zm6.173.478c-.928.116-1.682.028-1.682.028V7.284h1.77s1.971.551 1.971 2.638c0 1.913-.985 2.667-2.059 3.015z"
       id="path846"
       style="fill:#ffffff" />
  </g>
  <path
     style="fill:#ff0000;stroke-width:3.38983"
     d="M 238.2183,504.0824 C 139.15913,410.91702 125.78563,392.11455 125.61148,345.76271 c -0.10395,-27.66642 4.08665,-38.94312 20.61348,-55.46995 17.03043,-17.03043 27.57282,-20.74361 58.85979,-20.73126 31.63949,0.0125 46.27098,5.42057 69.24948,25.59596 l 11.81086,10.37008 18.1531,-13.70572 c 22.6425,-17.09526 41.93343,-24.04656 66.46699,-23.95076 36.28772,0.1417 67.27563,22.96336 77.10882,56.78834 6.43002,22.11848 4.44307,39.37251 -7.50767,65.19435 -6.66127,14.39291 -22.228,32.34357 -68.55997,79.05937 -32.96807,33.2412 -65.62508,64.99245 -72.57111,70.55832 l -12.62916,10.11978 z"
     id="path924"
     transform="scale(0.03)" />
</svg>
