<?xml version="1.0" encoding="iso-8859-1"?>
<!-- Uploaded to: SVG Repo, www.svgrepo.com, Generator: SVG Repo Mixer Tools -->
<svg height="800px" width="800px" version="1.1" id="Layer_1" xmlns="http://www.w3.org/2000/svg" xmlns:xlink="http://www.w3.org/1999/xlink" 
	 viewBox="0 0 512 512" xml:space="preserve">
<polygon style="fill:#7E4F1F;" points="511.516,107.105 511.788,107.036 264.065,31.004 0.479,106.898 0,106.759 0,411.849 
	238.676,480.721 238.676,480.159 238.888,480.996 512,412.125 512,107.036 "/>
<polygon style="fill:#EDA637;" points="264.065,31.004 0,107.036 238.676,175.907 511.788,107.036 "/>
<polygon style="fill:#C27526;" points="238.888,480.996 512,412.125 512,107.036 238.888,175.907 "/>
<path style="fill:#FFEC99;" d="M193.016,51.462L78.638,84.393l230.233,73.866v50.416c0,3.323,1.541,6.458,4.172,8.487
	c2.631,2.029,6.053,2.725,9.268,1.881l99.058-25.986c4.713-1.237,7.999-5.495,7.999-10.369v-54.816L193.016,51.462z"/>
<g>
	<path style="fill:#FFDC35;" d="M486.158,374.572c0,6.29-4.278,11.775-10.378,13.307l-52.647,13.55
		c-2.779,0.698-5.736,0.663-8.41-0.367c-5.363-2.066-8.677-7.119-8.677-12.576v-56.226c0-6.29,4.278-11.775,10.378-13.307
		l52.647-13.55c2.779-0.698,5.736-0.663,8.41,0.367c5.363,2.066,8.677,7.119,8.677,12.576V374.572z"/>
	<path style="fill:#FFDC35;" d="M429.367,182.689c0,4.872-3.287,9.132-7.999,10.368l-99.058,25.986
		c-3.214,0.843-6.637,0.148-9.268-1.881c-2.631-2.029-4.172-5.164-4.172-8.487v-50.416l120.497-30.386L429.367,182.689
		L429.367,182.689z"/>
</g>
<path style="fill:#DF7400;" d="M186.692,292.407l-40.804-11.978c-5.273-1.548-8.895-6.385-8.895-11.881v-39.76
	c0-8.263,7.941-14.208,15.87-11.881l40.804,11.978c5.273,1.548,8.895,6.385,8.895,11.881v39.76
	C202.562,288.791,194.622,294.735,186.692,292.407z"/>
</svg>